<svg width="22" height="24" viewBox="0 0 22 24" fill="none" xmlns="http://www.w3.org/2000/svg">
<path d="M17.7708 8.10082C17.7708 6.3112 17.0641 4.59487 15.806 3.32941C14.548 2.06395 12.8417 1.35303 11.0625 1.35303C9.28334 1.35303 7.57705 2.06395 6.31899 3.32941C5.06094 4.59487 4.35417 6.3112 4.35417 8.10082C4.35417 15.9732 1 18.2225 1 18.2225H21.125C21.125 18.2225 17.7708 15.9732 17.7708 8.10082Z" stroke="#333333" stroke-width="1.5" stroke-linecap="round" stroke-linejoin="round"/>
<path d="M13.25 21.7739C13.0277 22.044 12.7086 22.2681 12.3247 22.424C11.9408 22.5798 11.5055 22.6618 11.0625 22.6618C10.6195 22.6618 10.1842 22.5798 9.80029 22.424C9.41638 22.2681 9.0973 22.044 8.875 21.7739" stroke="#333333" stroke-width="1.5" stroke-linecap="round" stroke-linejoin="round"/>
</svg>
