<svg width="27" height="25" viewBox="0 0 27 25" fill="none" xmlns="http://www.w3.org/2000/svg">
<path d="M5.72827 20.6059L6.04828 19.9276L5.72827 20.6059ZM4.74524 19.6955L4.08815 20.0571H4.08815L4.74524 19.6955ZM22.255 19.6955L21.5979 19.334L22.255 19.6955ZM21.2713 20.6059L20.9512 19.9276L21.2713 20.6059ZM21.2713 4.39341L21.5913 3.71511L21.2713 4.39341ZM22.255 5.30388L21.5979 5.66547V5.66547L22.255 5.30388ZM5.72827 4.39341L6.04828 5.07171L5.72827 4.39341ZM4.74524 5.30388L5.40232 5.66547L4.74524 5.30388ZM18 16.6663V15.9163C17.5858 15.9163 17.25 16.2521 17.25 16.6663H18ZM18.0022 16.6663L18.752 16.6853C18.7571 16.4831 18.6804 16.2875 18.5392 16.1427C18.3981 15.998 18.2044 15.9163 18.0022 15.9163V16.6663ZM18.0022 16.6684L17.9856 17.4182C18.3988 17.4274 18.7415 17.1005 18.752 16.6873L18.0022 16.6684ZM18 16.6684H17.25C17.25 17.0761 17.5757 17.4092 17.9834 17.4182L18 16.6684ZM13.5 16.6663V15.9163C13.0858 15.9163 12.75 16.2521 12.75 16.6663H13.5ZM13.5022 16.6663L14.252 16.6853C14.2571 16.4831 14.1804 16.2875 14.0392 16.1427C13.8981 15.998 13.7044 15.9163 13.5022 15.9163V16.6663ZM13.5022 16.6684L13.4856 17.4182C13.8988 17.4274 14.2415 17.1005 14.252 16.6873L13.5022 16.6684ZM13.5 16.6684H12.75C12.75 17.0761 13.0757 17.4092 13.4834 17.4182L13.5 16.6684ZM9 16.6663V15.9163C8.58579 15.9163 8.25 16.2521 8.25 16.6663H9ZM9.00225 16.6663L9.75201 16.6853C9.75711 16.4831 9.68039 16.2875 9.53923 16.1427C9.39807 15.998 9.20444 15.9163 9.00225 15.9163V16.6663ZM9.0022 16.6684L8.98559 17.4182C9.3988 17.4274 9.74153 17.1005 9.75196 16.6873L9.0022 16.6684ZM9 16.6684H8.25C8.25 17.0761 8.57575 17.4092 8.98339 17.4182L9 16.6684ZM18.0022 12.4997H18.7522C18.7522 12.0855 18.4164 11.7497 18.0022 11.7497V12.4997ZM18.0022 12.5018L17.9856 13.2516C18.1873 13.256 18.3824 13.179 18.5266 13.0379C18.6709 12.8968 18.7522 12.7035 18.7522 12.5018H18.0022ZM18 12.5017H17.25C17.25 12.9094 17.5757 13.2425 17.9834 13.2515L18 12.5017ZM18 12.4997V11.7497C17.5858 11.7497 17.25 12.0855 17.25 12.4997H18ZM13.5 12.4997V11.7497C13.0858 11.7497 12.75 12.0855 12.75 12.4997H13.5ZM13.5022 12.4997L14.252 12.5186C14.2571 12.3165 14.1804 12.1208 14.0392 11.9761C13.8981 11.8313 13.7044 11.7497 13.5022 11.7497V12.4997ZM13.5022 12.5018L13.4856 13.2516C13.8988 13.2607 14.2415 12.9339 14.252 12.5207L13.5022 12.5018ZM13.5 12.5017H12.75C12.75 12.9094 13.0757 13.2425 13.4834 13.2515L13.5 12.5017ZM9 12.4997V11.7497C8.58579 11.7497 8.25 12.0855 8.25 12.4997H9ZM9.00225 12.4997L9.75201 12.5186C9.75711 12.3165 9.68039 12.1208 9.53923 11.9761C9.39807 11.8313 9.20444 11.7497 9.00225 11.7497V12.4997ZM9.0022 12.5018L8.98559 13.2516C9.3988 13.2607 9.74153 12.9339 9.75196 12.5207L9.0022 12.5018ZM9 12.5017H8.25C8.25 12.9094 8.57575 13.2425 8.98339 13.2515L9 12.5017ZM4.5 7.58301C4.08579 7.58301 3.75 7.91879 3.75 8.33301C3.75 8.74722 4.08579 9.08301 4.5 9.08301V7.58301ZM22.5 9.08301C22.9142 9.08301 23.25 8.74722 23.25 8.33301C23.25 7.91879 22.9142 7.58301 22.5 7.58301V9.08301ZM18.75 2.08301C18.75 1.66879 18.4142 1.33301 18 1.33301C17.5858 1.33301 17.25 1.66879 17.25 2.08301H18.75ZM17.25 4.16634C17.25 4.58055 17.5858 4.91634 18 4.91634C18.4142 4.91634 18.75 4.58055 18.75 4.16634H17.25ZM9.75 2.08301C9.75 1.66879 9.41421 1.33301 9 1.33301C8.58579 1.33301 8.25 1.66879 8.25 2.08301H9.75ZM8.25 4.16634C8.25 4.58055 8.58579 4.91634 9 4.91634C9.41421 4.91634 9.75 4.58055 9.75 4.16634H8.25ZM8.10022 4.91634H18.9002V3.41634H8.10022V4.91634ZM21.75 7.49962V17.4996H23.25V7.49962H21.75ZM18.9002 20.083H8.10022V21.583H18.9002V20.083ZM5.25 17.4996V7.49962H3.75V17.4996H5.25ZM8.10022 20.083C7.45871 20.083 7.01921 20.0825 6.67876 20.0567C6.34547 20.0315 6.17081 19.9854 6.04828 19.9276L5.40826 21.2842C5.76703 21.4535 6.14829 21.5209 6.56561 21.5525C6.97578 21.5835 7.48161 21.583 8.10022 21.583V20.083ZM3.75 17.4996C3.75 18.0697 3.74932 18.5459 3.78356 18.9339C3.81873 19.3325 3.89496 19.706 4.08815 20.0571L5.40232 19.334C5.35028 19.2394 5.30389 19.0983 5.27775 18.8021C5.25068 18.4953 5.25 18.0964 5.25 17.4996H3.75ZM6.04828 19.9276C5.76091 19.792 5.53824 19.581 5.40232 19.334L4.08815 20.0571C4.38366 20.5941 4.8489 21.0203 5.40826 21.2842L6.04828 19.9276ZM21.75 17.4996C21.75 18.0964 21.7494 18.4953 21.7224 18.8022C21.6963 19.0985 21.6499 19.2395 21.5979 19.334L22.9121 20.0571C23.1053 19.706 23.1815 19.3324 23.2166 18.9338C23.2507 18.5458 23.25 18.0696 23.25 17.4996H21.75ZM18.9002 21.583C19.5188 21.583 20.0244 21.5835 20.4344 21.5525C20.8516 21.5209 21.2326 21.4534 21.5913 21.2842L20.9512 19.9276C20.8286 19.9854 20.6541 20.0315 20.3212 20.0567C19.981 20.0825 19.5417 20.083 18.9002 20.083V21.583ZM21.5979 19.334C21.4623 19.5805 21.2391 19.7918 20.9512 19.9276L21.5913 21.2842C22.1501 21.0206 22.6163 20.5946 22.9121 20.0571L21.5979 19.334ZM18.9002 4.91634C19.5418 4.91634 19.981 4.91684 20.3212 4.94259C20.6542 4.96778 20.8286 5.01387 20.9512 5.07171L21.5913 3.71511C21.2326 3.54588 20.8516 3.47843 20.4344 3.44686C20.0244 3.41584 19.5188 3.41634 18.9002 3.41634V4.91634ZM23.25 7.49962C23.25 6.92967 23.2507 6.45346 23.2166 6.06553C23.1815 5.66697 23.1053 5.29345 22.9121 4.9423L21.5979 5.66547C21.6499 5.75997 21.6963 5.90093 21.7224 6.19713C21.7494 6.50396 21.75 6.9028 21.75 7.49962H23.25ZM20.9512 5.07171C21.2391 5.20749 21.4622 5.41887 21.5979 5.66547L22.9121 4.9423C22.6164 4.40489 22.1502 3.9788 21.5913 3.71511L20.9512 5.07171ZM8.10022 3.41634C7.48162 3.41634 6.97579 3.41584 6.56563 3.44686C6.14831 3.47842 5.76705 3.54584 5.40826 3.71511L6.04828 5.07171C6.1708 5.01391 6.34545 4.9678 6.67875 4.94259C7.0192 4.91684 7.4587 4.91634 8.10022 4.91634V3.41634ZM5.25 7.49962C5.25 6.90288 5.25068 6.50404 5.27775 6.19726C5.30389 5.9011 5.35027 5.76006 5.40232 5.66547L4.08815 4.9423C3.89497 5.29336 3.81873 5.6668 3.78356 6.0654C3.74932 6.45339 3.75 6.92959 3.75 7.49962H5.25ZM5.40826 3.71511C4.84882 3.97905 4.38362 4.40537 4.08815 4.9423L5.40232 5.66547C5.53828 5.41839 5.761 5.20725 6.04828 5.07171L5.40826 3.71511ZM18 17.4163H18.0022V15.9163H18V17.4163ZM17.2525 16.6474L17.2524 16.6495L18.752 16.6873L18.752 16.6853L17.2525 16.6474ZM18.0188 15.9186L18.0166 15.9186L17.9834 17.4182L17.9856 17.4182L18.0188 15.9186ZM18.75 16.6684V16.6663H17.25V16.6684H18.75ZM13.5 17.4163H13.5022V15.9163H13.5V17.4163ZM12.7525 16.6474L12.7524 16.6495L14.252 16.6873L14.252 16.6853L12.7525 16.6474ZM13.5188 15.9186L13.5166 15.9186L13.4834 17.4182L13.4856 17.4182L13.5188 15.9186ZM14.25 16.6684V16.6663H12.75V16.6684H14.25ZM9 17.4163H9.00225V15.9163H9V17.4163ZM8.25249 16.6474L8.25244 16.6495L9.75196 16.6873L9.75201 16.6853L8.25249 16.6474ZM9.01881 15.9186L9.01661 15.9186L8.98339 17.4182L8.98559 17.4182L9.01881 15.9186ZM9.75 16.6684V16.6663H8.25V16.6684H9.75ZM17.2522 12.4997V12.5018H18.7522V12.4997H17.2522ZM18.0188 11.7519L18.0166 11.7519L17.9834 13.2515L17.9856 13.2516L18.0188 11.7519ZM18.75 12.5017V12.4997H17.25V12.5017H18.75ZM18 13.2497H18.0022V11.7497H18V13.2497ZM13.5 13.2497H13.5022V11.7497H13.5V13.2497ZM12.7525 12.4808L12.7524 12.4828L14.252 12.5207L14.252 12.5186L12.7525 12.4808ZM13.5188 11.7519L13.5166 11.7519L13.4834 13.2515L13.4856 13.2516L13.5188 11.7519ZM14.25 12.5017V12.4997H12.75V12.5017H14.25ZM9 13.2497H9.00225V11.7497H9V13.2497ZM8.25249 12.4808L8.25244 12.4828L9.75196 12.5207L9.75201 12.5186L8.25249 12.4808ZM9.01881 11.7519L9.01661 11.7519L8.98339 13.2515L8.98559 13.2516L9.01881 11.7519ZM9.75 12.5017V12.4997H8.25V12.5017H9.75ZM4.5 9.08301H22.5V7.58301H4.5V9.08301ZM17.25 2.08301V4.16634H18.75V2.08301H17.25ZM8.25 2.08301V4.16634H9.75V2.08301H8.25Z" fill="#666666"/>
</svg>
