<svg width="35" height="30" viewBox="0 0 35 30" fill="none" xmlns="http://www.w3.org/2000/svg">
<rect x="6.71206" y="7.60879" width="3.12759" height="3.12759" stroke="#888888" stroke-width="1.7"/>
<rect x="6.71206" y="13.4018" width="3.12759" height="3.12759" stroke="#888888" stroke-width="1.7"/>
<rect x="6.71206" y="19.1947" width="3.12759" height="3.12759" stroke="#888888" stroke-width="1.7"/>
<line x1="11.6553" y1="8.80527" x2="22.276" y2="8.80527" stroke="#888888" stroke-width="1.7"/>
<line x1="11.6553" y1="14.5982" x2="22.276" y2="14.5982" stroke="#888888" stroke-width="1.7"/>
<line x1="11.6553" y1="20.3912" x2="22.276" y2="20.3912" stroke="#888888" stroke-width="1.7"/>
<path d="M5.86207 2.41379H2V28H26.1379V2.41379H22.2759M8.27586 0V1.93103V3.86207M12.1379 0V1.93103V3.86207M16 0V1.93103V3.86207M19.8621 0V1.93103V3.86207" stroke="#888888" stroke-width="2.3"/>
<circle cx="25.5" cy="16.5" r="7.6" fill="#1177EE" stroke="white" stroke-width="1.8"/>
<path d="M30 16.5C30 18.9853 27.9853 21 25.5 21C23.0147 21 21 18.9853 21 16.5C21 14.0147 23.0147 12 25.5 12C27.9853 12 30 14.0147 30 16.5Z" fill="white"/>
<path d="M30 21L33.7035 24.3592" stroke="#1177EE" stroke-width="2.5" stroke-linecap="round"/>
</svg>
