<svg width="32" height="29" viewBox="0 0 32 29" fill="none" xmlns="http://www.w3.org/2000/svg">
<g clip-path="url(#clip0_21_1299)">
<path d="M28.3569 11.2796V9.59082" stroke="#888888" stroke-width="2" stroke-miterlimit="10"/>
<path d="M0.697266 9.59082V28.2871H28.357V25.5713" stroke="#888888" stroke-width="2" stroke-miterlimit="10"/>
<path d="M7.02368 0V3.60574" stroke="#888888" stroke-width="2" stroke-miterlimit="10"/>
<path d="M10.7783 0V3.60574" stroke="#888888" stroke-width="2" stroke-miterlimit="10"/>
<path d="M14.5271 0V3.60574" stroke="#888888" stroke-width="2" stroke-miterlimit="10"/>
<path d="M18.2817 0V3.60574" stroke="#888888" stroke-width="2" stroke-miterlimit="10"/>
<path d="M22.0308 0V3.60574" stroke="#888888" stroke-width="2" stroke-miterlimit="10"/>
<path d="M4.46296 2.94385H0.697266V7.47385H28.357V2.94385H24.5913" stroke="#888888" stroke-width="2" stroke-miterlimit="10"/>
<path d="M25.5117 24.4531C28.7099 24.4531 31.3025 21.8017 31.3025 18.531C31.3025 15.2603 28.7099 12.6089 25.5117 12.6089C22.3136 12.6089 19.7209 15.2603 19.7209 18.531C19.7209 21.8017 22.3136 24.4531 25.5117 24.4531Z" fill="#1177EE"/>
<path d="M22.9231 18.0859L24.937 20.1455L28.1002 16.9106" stroke="white" stroke-miterlimit="10"/>
<path d="M12.502 11.0737V13.43H16.5522V11.0737" stroke="#888888" stroke-width="2" stroke-miterlimit="10"/>
<path d="M4.99854 11.0737V13.43H9.04874V11.0737" stroke="#888888" stroke-width="2" stroke-miterlimit="10"/>
<path d="M12.502 16.585V18.9412H16.5522V16.585" stroke="#888888" stroke-width="2" stroke-miterlimit="10"/>
<path d="M4.99854 16.585V18.9412H9.04874V16.585" stroke="#888888" stroke-width="2" stroke-miterlimit="10"/>
<path d="M12.502 22.0962V24.4525H16.5522V22.0962" stroke="#888888" stroke-width="2" stroke-miterlimit="10"/>
<path d="M4.99854 22.0962V24.4525H9.04874V22.0962" stroke="#888888" stroke-width="2" stroke-miterlimit="10"/>
</g>
<defs>
<clipPath id="clip0_21_1299">
<rect width="32" height="29" fill="white"/>
</clipPath>
</defs>
</svg>
