<svg width="40" height="28" viewBox="0 0 40 28" fill="none" xmlns="http://www.w3.org/2000/svg">
<path d="M1.48194 25.5713C1.48194 26.2752 2.34114 26.6903 2.96601 26.2933L10.7573 21.348C10.9135 21.2397 11.1088 21.1856 11.3041 21.1856H24.0749C24.6021 21.1856 25.0122 20.7885 25.0122 20.3193V6.98155C25.0122 6.49425 24.5826 6.11523 24.0749 6.11523C24.0749 6.11523 2.91693 6.11523 2.3897 6.11523C1.86247 6.11523 1.45239 6.5123 1.45239 6.98155C1.45239 7.45081 1.48194 25.5713 1.48194 25.5713Z" stroke="#888888" stroke-width="2" stroke-miterlimit="10"/>
<path d="M38.0237 22.4128C38.0362 22.4128 38.0492 22.4128 38.0628 22.4128L38.0237 22.4128ZM38.0237 22.4128L37.9987 22.4128C38.0068 22.4128 38.0151 22.4128 38.0237 22.4128ZM15.7612 4.581V2.81935H37.7128V21.8925L29.5717 16.4934C29.3303 16.3217 29.0632 16.2512 28.7873 16.2512H26.8151H26.4651V16.6012V17.4675V17.8175H26.8151H28.7209L37.2003 23.441C37.4417 23.6127 37.7088 23.6832 37.9847 23.6832C38.1848 23.6832 38.4166 23.6388 38.6118 23.537C39.045 23.3231 39.3501 22.9048 39.3501 22.3947V2.54154C39.3501 1.7994 38.7178 1.25303 37.9847 1.25303H15.4893C14.7562 1.25303 14.1239 1.7994 14.1239 2.54154V4.581V4.931H14.4739H15.4112H15.7612V4.581Z" fill="#888888" stroke="#888888" stroke-width="0.7"/>
<line x1="6" y1="10.9048" x2="21" y2="10.9048" stroke="#1177EE" stroke-width="2"/>
<path d="M6 14.7144H16.5" stroke="#1177EE" stroke-width="2"/>
</svg>
