<svg width="23" height="6" viewBox="0 0 23 6" fill="none" xmlns="http://www.w3.org/2000/svg">
<path d="M8.80432 3.00747C8.80432 4.40848 9.92361 5.54423 11.3043 5.54423C12.685 5.54423 13.8043 4.40848 13.8043 3.00747C13.8043 1.60645 12.685 0.470703 11.3043 0.470703C9.92361 0.470703 8.80432 1.60645 8.80432 3.00747Z" fill="#444444"/>
<path d="M-1.24775e-07 3.00747C-1.93686e-07 4.40848 1.11929 5.54423 2.5 5.54423C3.88071 5.54423 5 4.40848 5 3.00747C5 1.60645 3.88071 0.470703 2.5 0.470703C1.11929 0.470703 -5.58636e-08 1.60645 -1.24775e-07 3.00747Z" fill="#444444"/>
<path d="M17.6087 3.00747C17.6087 4.40848 18.728 5.54423 20.1087 5.54423C21.4894 5.54423 22.6087 4.40848 22.6087 3.00747C22.6087 1.60645 21.4894 0.470703 20.1087 0.470703C18.728 0.470703 17.6087 1.60645 17.6087 3.00747Z" fill="#444444"/>
</svg>
