<svg width="35" height="35" viewBox="0 0 35 35" fill="none" xmlns="http://www.w3.org/2000/svg">
<g clip-path="url(#clip0_288_12525)">
<path d="M33.9062 5.87891H29.1211V1.09375C29.1211 0.716201 28.815 0.410156 28.4375 0.410156H1.09375C0.716201 0.410156 0.410156 0.716201 0.410156 1.09375V28.4375C0.410156 28.815 0.716201 29.1211 1.09375 29.1211H5.87891V33.9062C5.87891 34.2837 6.18495 34.5898 6.5625 34.5898H33.9062C34.2837 34.5898 34.5898 34.2837 34.5898 33.9062V6.5625C34.5898 6.18495 34.2837 5.87891 33.9062 5.87891ZM27.7539 1.77734V22.6855L19.3506 14.2823C19.0568 13.9887 18.57 14.0226 18.3203 14.3555L15.6845 17.8698L9.85592 9.58706C9.57988 9.19488 8.99459 9.20138 8.72812 9.60128L1.77734 20.0275V1.77734H27.7539ZM18.9412 15.8063L27.7539 24.6192V27.7539H9.98047L18.9412 15.8063ZM1.77734 22.4921L9.31212 11.19L14.822 19.0198L8.27148 27.7539C7.57292 27.7539 2.63908 27.7539 1.77734 27.7539V22.4921ZM33.2227 33.2227H7.24609V29.1211H28.4375C28.815 29.1211 29.1211 28.815 29.1211 28.4375C29.1211 28.06 29.1211 7.96004 29.1211 7.24609H33.2227V33.2227Z" fill="#666666"/>
<path d="M22 5V11" stroke="#666666" stroke-width="1.2" stroke-linecap="round"/>
<path d="M25 8L19 8" stroke="#666666" stroke-width="1.2" stroke-linecap="round"/>
</g>
<defs>
<clipPath id="clip0_288_12525">
<rect width="35" height="35" fill="white"/>
</clipPath>
</defs>
</svg>
