<svg width="18" height="16" viewBox="0 0 18 16" fill="none" xmlns="http://www.w3.org/2000/svg">
<path d="M13.6316 15.3158V13.6316C13.6316 12.7382 13.2989 11.8815 12.7067 11.2498C12.1144 10.6181 11.3112 10.2632 10.4737 10.2632H4.15789C3.32037 10.2632 2.51715 10.6181 1.92493 11.2498C1.33271 11.8815 1 12.7382 1 13.6316V15.3158" stroke="white" stroke-linecap="round" stroke-linejoin="round"/>
<path d="M7.31602 6.89474C8.94381 6.89474 10.2634 5.57516 10.2634 3.94737C10.2634 2.31958 8.94381 1 7.31602 1C5.68823 1 4.36865 2.31958 4.36865 3.94737C4.36865 5.57516 5.68823 6.89474 7.31602 6.89474Z" stroke="white" stroke-linecap="round" stroke-linejoin="round"/>
<path d="M16.9999 15.3158V13.5943C16.9994 12.8314 16.751 12.0904 16.2937 11.4874C15.8365 10.8845 15.1963 10.4539 14.4736 10.2632" stroke="white" stroke-linecap="round" stroke-linejoin="round"/>
<path d="M11.1055 1C11.8281 1.16756 12.4687 1.54817 12.9261 2.08183C13.3835 2.61548 13.6318 3.27182 13.6318 3.94737C13.6318 4.62292 13.3835 5.27926 12.9261 5.81291C12.4687 6.34656 11.8281 6.72717 11.1055 6.89474" stroke="white" stroke-linecap="round" stroke-linejoin="round"/>
</svg>
