<svg width="20" height="20" viewBox="0 0 20 20" fill="none" xmlns="http://www.w3.org/2000/svg">
<g clip-path="url(#clip0_229_477)">
<path d="M17.0711 12.9289C15.982 11.8398 14.6855 11.0336 13.2711 10.5453C14.7859 9.50195 15.7812 7.75586 15.7812 5.78125C15.7812 2.59336 13.1879 0 10 0C6.81211 0 4.21875 2.59336 4.21875 5.78125C4.21875 7.75586 5.21406 9.50195 6.72891 10.5453C5.31445 11.0332 4.01797 11.8398 2.92891 12.9289C1.04023 14.8176 0 17.3289 0 20H1.5625C1.5625 15.3477 5.34766 11.5625 10 11.5625C14.6523 11.5625 18.4375 15.3477 18.4375 20H20C20 17.3289 18.9598 14.8176 17.0711 12.9289ZM10 10C7.67383 10 5.78125 8.10742 5.78125 5.78125C5.78125 3.45508 7.67383 1.5625 10 1.5625C12.3262 1.5625 14.2188 3.45508 14.2188 5.78125C14.2188 8.10742 12.3262 10 10 10Z" fill="#443B36"/>
</g>
<defs>
<clipPath id="clip0_229_477">
<rect width="20" height="20" fill="white"/>
</clipPath>
</defs>
</svg>
