<svg width="16" height="19" viewBox="0 0 16 19" fill="none" xmlns="http://www.w3.org/2000/svg">
<g clip-path="url(#clip0_1374_13064)">
<path d="M13.3659 16.0695H13.3094C13.3094 16.0695 13.2906 16.0695 13.2811 16.0622C13.2811 16.0622 13.2717 16.0476 13.2623 16.0476L12.0291 14.7234C12.0291 14.7234 12.0291 14.7307 12.0291 14.738C12.0291 14.738 12.0291 14.7453 12.0197 14.7526L10.7959 16.0549L10.7771 16.0695C10.7771 16.0695 10.7583 16.0768 10.7489 16.0768H10.6924L11.9915 14.7014L10.7489 13.3918H10.8053C10.8053 13.3918 10.8242 13.3918 10.8336 13.3992C10.8336 13.3992 10.843 13.4138 10.8524 13.4138L12.0385 14.6721C12.0385 14.6721 12.0385 14.6648 12.048 14.6575C12.048 14.6575 12.048 14.6502 12.0574 14.6429L13.2152 13.4138C13.2152 13.4138 13.2247 13.3992 13.2341 13.3918C13.2341 13.3918 13.2529 13.3845 13.2623 13.3845H13.3188L12.0856 14.6941L13.3847 16.0695H13.3659Z" stroke="white" stroke-width="0.4" stroke-miterlimit="10"/>
<line x1="1" y1="5.25122" x2="15" y2="5.25122" stroke="white"/>
<line x1="1" y1="11.6057" x2="15" y2="11.6057" stroke="white"/>
<line x1="8.0332" y1="4.80103" x2="8.0332" y2="18.1042" stroke="white"/>
<line x1="9.61523" y1="8.28857" x2="13.9229" y2="8.28857" stroke="white" stroke-width="0.5"/>
<path d="M2.3999 8.21533L6.16913 8.21533" stroke="white" stroke-width="0.5"/>
<path d="M4.23047 6.38452L4.23047 10.1538" stroke="white" stroke-width="0.5"/>
<line y1="-0.25" x2="3.76923" y2="-0.25" transform="matrix(1 0 0 -1 2.3999 15.2156)" stroke="white" stroke-width="0.5"/>
<line y1="-0.25" x2="3.76923" y2="-0.25" transform="matrix(1 0 0 -1 2.3999 13.6001)" stroke="white" stroke-width="0.5"/>
</g>
<rect x="0.5" y="0.5" width="15" height="17.1538" rx="1" stroke="white"/>
<defs>
<clipPath id="clip0_1374_13064">
<rect x="1" y="1" width="14" height="16.1538" rx="0.5" fill="white"/>
</clipPath>
</defs>
</svg>
