<svg width="16" height="19" viewBox="0 0 16 19" fill="none" xmlns="http://www.w3.org/2000/svg">
<g clip-path="url(#clip0_21_1232)">
<path d="M13.3659 16.0698H13.3094C13.3094 16.0698 13.2906 16.0698 13.2811 16.0624C13.2811 16.0624 13.2717 16.0478 13.2623 16.0478L12.0291 14.7236C12.0291 14.7236 12.0291 14.7309 12.0291 14.7382C12.0291 14.7382 12.0291 14.7456 12.0197 14.7529L10.7959 16.0551L10.7771 16.0698C10.7771 16.0698 10.7583 16.0771 10.7489 16.0771H10.6924L11.9915 14.7017L10.7489 13.3921H10.8053C10.8053 13.3921 10.8242 13.3921 10.8336 13.3994C10.8336 13.3994 10.843 13.414 10.8524 13.414L12.0385 14.6724C12.0385 14.6724 12.0385 14.6651 12.048 14.6578C12.048 14.6578 12.048 14.6504 12.0574 14.6431L13.2152 13.414C13.2152 13.414 13.2247 13.3994 13.2341 13.3921C13.2341 13.3921 13.2529 13.3848 13.2623 13.3848H13.3188L12.0856 14.6943L13.3847 16.0698H13.3659Z" stroke="#DDDDDD" stroke-width="0.4" stroke-miterlimit="10"/>
<line x1="1" y1="5.25098" x2="15" y2="5.25098" stroke="#DDDDDD"/>
<line x1="1" y1="11.606" x2="15" y2="11.606" stroke="#DDDDDD"/>
<line x1="8.03345" y1="4.80078" x2="8.03345" y2="18.1039" stroke="#DDDDDD"/>
<line x1="9.61548" y1="8.28857" x2="13.9232" y2="8.28857" stroke="#DDDDDD" stroke-width="0.5"/>
<path d="M2.3999 8.21533L6.16913 8.21533" stroke="#DDDDDD" stroke-width="0.5"/>
<path d="M4.23071 6.38477L4.23071 10.154" stroke="#DDDDDD" stroke-width="0.5"/>
<line y1="-0.25" x2="3.76923" y2="-0.25" transform="matrix(1 0 0 -1 2.3999 15.2153)" stroke="#DDDDDD" stroke-width="0.5"/>
<line y1="-0.25" x2="3.76923" y2="-0.25" transform="matrix(1 0 0 -1 2.3999 13.6001)" stroke="#DDDDDD" stroke-width="0.5"/>
</g>
<rect x="0.5" y="0.5" width="15" height="17.1538" rx="1" stroke="#DDDDDD"/>
<defs>
<clipPath id="clip0_21_1232">
<rect x="1" y="1" width="14" height="16.1538" rx="0.5" fill="white"/>
</clipPath>
</defs>
</svg>
