<svg width="19" height="19" viewBox="0 0 19 19" fill="none" xmlns="http://www.w3.org/2000/svg">
<path d="M1.00003 9.02779C0.996777 10.2743 1.28802 11.504 1.85002 12.6167C2.51639 13.95 3.54081 15.0714 4.80854 15.8554C6.07627 16.6394 7.53723 17.055 9.02779 17.0556C10.2743 17.0588 11.504 16.7676 12.6167 16.2056L18 18L16.2056 12.6167C16.7676 11.504 17.0588 10.2743 17.0556 9.02779C17.055 7.53723 16.6394 6.07627 15.8554 4.80854C15.0714 3.54081 13.95 2.51639 12.6167 1.85003C11.504 1.28802 10.2743 0.996777 9.02779 1.00003H8.55557C6.58702 1.10863 4.7277 1.93952 3.33361 3.33361C1.93952 4.7277 1.10863 6.58702 1.00003 8.55557V9.02779Z" stroke="#DDDDDD" stroke-linecap="round" stroke-linejoin="round"/>
<path d="M5 7H14" stroke="#DDDDDD" stroke-linecap="round"/>
<path d="M5 11H10" stroke="#DDDDDD" stroke-linecap="round"/>
</svg>
