<svg width="70" height="70" viewBox="0 0 70 70" fill="none" xmlns="http://www.w3.org/2000/svg">
<g opacity="0.7">
<rect x="0.5" y="0.5" width="69" height="69" fill="white" stroke="#CCCCCC" stroke-dasharray="3 3"/>
</g>
<g clip-path="url(#clip0_191_10320)">
<path d="M51.9062 23.8789H47.1211V19.0938C47.1211 18.7162 46.815 18.4102 46.4375 18.4102H19.0938C18.7162 18.4102 18.4102 18.7162 18.4102 19.0938V46.4375C18.4102 46.815 18.7162 47.1211 19.0938 47.1211H23.8789V51.9062C23.8789 52.2837 24.185 52.5898 24.5625 52.5898H51.9062C52.2837 52.5898 52.5898 52.2837 52.5898 51.9062V24.5625C52.5898 24.185 52.2837 23.8789 51.9062 23.8789ZM45.7539 19.7773V40.6855L37.3506 32.2823C37.0568 31.9887 36.57 32.0226 36.3203 32.3555L33.6845 35.8698L27.8559 27.5871C27.5799 27.1949 26.9946 27.2014 26.7281 27.6013L19.7773 38.0275V19.7773H45.7539ZM36.9412 33.8063L45.7539 42.6192V45.7539H27.9805L36.9412 33.8063ZM19.7773 40.4921L27.3121 29.19L32.822 37.0198L26.2715 45.7539C25.5729 45.7539 20.6391 45.7539 19.7773 45.7539V40.4921ZM51.2227 51.2227H25.2461V47.1211H46.4375C46.815 47.1211 47.1211 46.815 47.1211 46.4375C47.1211 46.06 47.1211 25.96 47.1211 25.2461H51.2227V51.2227Z" fill="#666666"/>
<path d="M40 23V29" stroke="#666666" stroke-width="1.2" stroke-linecap="round"/>
<path d="M43 26L37 26" stroke="#666666" stroke-width="1.2" stroke-linecap="round"/>
</g>
<defs>
<clipPath id="clip0_191_10320">
<rect width="35" height="35" fill="white" transform="translate(18 18)"/>
</clipPath>
</defs>
</svg>
