<svg xmlns="http://www.w3.org/2000/svg" xmlns:xlink="http://www.w3.org/1999/xlink" viewBox="0 0 446.74 104.63"><defs><style>.cls-1{fill:none;}.cls-2{clip-path:url(#clip-path);}.cls-3{fill:url(#linear-gradient);}.cls-4{clip-path:url(#clip-path-2);}.cls-5{fill:url(#linear-gradient-2);}.cls-6{clip-path:url(#clip-path-3);}.cls-7{fill:url(#linear-gradient-3);}.cls-8{clip-path:url(#clip-path-4);}.cls-9{fill:url(#linear-gradient-4);}.cls-10{clip-path:url(#clip-path-5);}.cls-11{fill:url(#linear-gradient-5);}.cls-12{clip-path:url(#clip-path-6);}.cls-13{fill:url(#linear-gradient-6);}.cls-14{clip-path:url(#clip-path-7);}.cls-15{fill:url(#linear-gradient-7);}.cls-16{fill:#9a999a;}.cls-17{fill:url(#linear-gradient-8);}</style><clipPath id="clip-path"><path class="cls-1" d="M227,45.79h0a21,21,0,1,1,21,21,21,21,0,0,1-21-21m0-20.58V16.37h-8.41V45.78h0v58.83H227V66.37a29.42,29.42,0,1,0,0-41.16"/></clipPath><linearGradient id="linear-gradient" x1="-25.59" y1="-1471.08" x2="-24.61" y2="-1471.08" gradientTransform="matrix(59.75, 0, 0, -59.75, 1747.64, -87831.28)" gradientUnits="userSpaceOnUse"><stop offset="0" stop-color="#c32086"/><stop offset="1" stop-color="#dc1576"/></linearGradient><clipPath id="clip-path-2"><path class="cls-1" d="M92.46,45.79a21,21,0,1,1,21,21,21,21,0,0,1-21-21m42-29.42v8.84a29.42,29.42,0,1,0,0,41.16v8.84h8.4V16.37Z"/></clipPath><linearGradient id="linear-gradient-2" x1="-25.56" y1="-1471.08" x2="-24.58" y2="-1471.08" gradientTransform="matrix(59.75, 0, 0, -59.75, 1611.41, -87846.57)" gradientUnits="userSpaceOnUse"><stop offset="0" stop-color="#008cc2"/><stop offset="1" stop-color="#865ba2"/></linearGradient><clipPath id="clip-path-3"><path class="cls-1" d="M67.25,16.37V54.19a12.61,12.61,0,0,1-25.22,0V16.37H33.62V54.19a12.61,12.61,0,1,1-25.22,0V16.81H0V54.19A21,21,0,0,0,37.82,66.76,21,21,0,0,0,75.65,54.19V16.37Z"/></clipPath><linearGradient id="linear-gradient-3" x1="-25.56" y1="-1464.79" x2="-24.57" y2="-1464.79" gradientTransform="matrix(76.82, 0, 0, -76.82, 1963.23, -112475.57)" gradientUnits="userSpaceOnUse"><stop offset="0" stop-color="#6fc7e2"/><stop offset="1" stop-color="#008cc8"/></linearGradient><clipPath id="clip-path-4"><path class="cls-1" d="M353.18,16.37V45.79a21,21,0,0,1-42,0V16.37h-8.41V47.89h.09a29.41,29.41,0,0,0,50.35,18.48v8.84h8.4V45.79h0V16.37Z"/></clipPath><linearGradient id="linear-gradient-4" x1="-25.61" y1="-1471.08" x2="-24.63" y2="-1471.08" gradientTransform="matrix(59.75, 0, 0, -59.75, 1833.14, -87846.25)" gradientUnits="userSpaceOnUse"><stop offset="0" stop-color="#e14560"/><stop offset="1" stop-color="#ee8d39"/></linearGradient><clipPath id="clip-path-5"><path class="cls-1" d="M201.73,16.37V33.18a21,21,0,0,1-42,0V16.37H151.3V33.18a29.41,29.41,0,0,0,50.43,20.58V75.21a21,21,0,1,1-42,0H151.3a29.42,29.42,0,0,0,58.84,0V16.37Z"/></clipPath><linearGradient id="linear-gradient-5" x1="-25.58" y1="-1471.08" x2="-24.59" y2="-1471.08" gradientTransform="matrix(59.75, 0, 0, -59.75, 1679.46, -87831.28)" gradientUnits="userSpaceOnUse"><stop offset="0" stop-color="#865ba2"/><stop offset="1" stop-color="#c32086"/></linearGradient><clipPath id="clip-path-6"><rect class="cls-1" x="285.79" width="8.4" height="75.21"/></clipPath><linearGradient id="linear-gradient-6" x1="-25.86" y1="-1640.16" x2="-24.88" y2="-1640.16" gradientTransform="matrix(8.54, 0, 0, -8.54, 506.53, -13961.52)" gradientUnits="userSpaceOnUse"><stop offset="0" stop-color="#dc1576"/><stop offset="1" stop-color="#e14460"/></linearGradient><clipPath id="clip-path-7"><path class="cls-1" d="M386.73,16.37h0a16.77,16.77,0,0,0,0,33.54V50H412v-.07h.1a8.44,8.44,0,0,1,0,16.88H369.92v8.41h42v-.08h.1a16.78,16.78,0,1,0,0-33.55H386.76a8.44,8.44,0,0,1,0-16.88v.07H412v-8.4Z"/></clipPath><linearGradient id="linear-gradient-7" x1="-25.64" y1="-1471.05" x2="-24.66" y2="-1471.05" gradientTransform="matrix(59.82, 0, 0, -59.82, 1903.96, -87951.47)" gradientUnits="userSpaceOnUse"><stop offset="0" stop-color="#ee8d39"/><stop offset="1" stop-color="#fac83e"/></linearGradient><linearGradient id="linear-gradient-8" x1="420.3" y1="20.61" x2="446.74" y2="20.61" gradientUnits="userSpaceOnUse"><stop offset="0" stop-color="#f6b63c"/><stop offset="1" stop-color="#fac83e"/></linearGradient></defs><g id="레이어_2" data-name="레이어 2"><g id="레이어_1-2" data-name="레이어 1"><g class="cls-2"><rect class="cls-3" x="218.54" y="16.37" width="58.84" height="88.26"/></g><g class="cls-4"><rect class="cls-5" x="84.06" y="16.37" width="58.84" height="58.84"/></g><g class="cls-6"><rect class="cls-7" y="16.37" width="75.65" height="58.84"/></g><g class="cls-8"><rect class="cls-9" x="302.74" y="16.37" width="58.84" height="58.84"/></g><g class="cls-10"><rect class="cls-11" x="151.3" y="16.37" width="58.84" height="88.26"/></g><g class="cls-12"><rect class="cls-13" x="285.79" width="8.4" height="75.21"/></g><g class="cls-14"><rect class="cls-15" x="369.92" y="16.37" width="58.91" height="58.84"/></g><path class="cls-16" d="M259.44,86.67v1.25h-5.12v3.56h4.81v1.26h-4.81v4.58h-1.47V86.67Z"/><path class="cls-16" d="M265.87,97.48a5.1,5.1,0,0,1-1.75-.29,3.55,3.55,0,0,1-1.37-.88,4,4,0,0,1-.89-1.46,6,6,0,0,1-.32-2V91.19a6,6,0,0,1,.32-2,4,4,0,0,1,.89-1.46,3.65,3.65,0,0,1,1.38-.89,5.36,5.36,0,0,1,3.48,0,3.73,3.73,0,0,1,1.38.89,4,4,0,0,1,.89,1.46,6,6,0,0,1,.32,2V92.8a6,6,0,0,1-.32,2,4,4,0,0,1-.89,1.46,3.59,3.59,0,0,1-1.38.88A5.12,5.12,0,0,1,265.87,97.48Zm0-9.64a3.05,3.05,0,0,0-1.15.2,2.32,2.32,0,0,0-.9.61,3,3,0,0,0-.59,1.1,5.4,5.4,0,0,0-.21,1.6v1.29a5.4,5.4,0,0,0,.21,1.6,2.91,2.91,0,0,0,.59,1.09,2.24,2.24,0,0,0,.9.62A3.38,3.38,0,0,0,267,96a2.35,2.35,0,0,0,.91-.62,2.89,2.89,0,0,0,.58-1.09,5.07,5.07,0,0,0,.22-1.6V91.35a5.07,5.07,0,0,0-.22-1.6,3,3,0,0,0-.58-1.1A2.44,2.44,0,0,0,267,88,3,3,0,0,0,265.87,87.84Z"/><path class="cls-16" d="M274.38,97.32h-1.46V86.67h3.85a4.37,4.37,0,0,1,1.45.22,3,3,0,0,1,1.06.61,2.48,2.48,0,0,1,.66.91,3,3,0,0,1,.23,1.17V90a2.81,2.81,0,0,1-.47,1.6,2.74,2.74,0,0,1-1.32,1l2.11,4.73h-1.58L277,92.87h-2.61Zm0-5.69h2a2.65,2.65,0,0,0,1.76-.46,1.59,1.59,0,0,0,.53-1.25v-.3a1.6,1.6,0,0,0-.52-1.24,2.46,2.46,0,0,0-1.63-.46h-2.18Z"/><path class="cls-16" d="M291.53,93v4.28h-1.46V93l-3.67-6.37H288l2.79,5,2.72-5h1.62Z"/><path class="cls-16" d="M301.23,97.48a5.14,5.14,0,0,1-1.75-.29,3.51,3.51,0,0,1-1.36-.88,3.92,3.92,0,0,1-.9-1.46,6,6,0,0,1-.31-2V91.19a6,6,0,0,1,.31-2,3.92,3.92,0,0,1,.9-1.46,3.61,3.61,0,0,1,1.37-.89,4.89,4.89,0,0,1,1.74-.29,5,5,0,0,1,1.75.29,3.61,3.61,0,0,1,1.37.89,4,4,0,0,1,.89,1.46,5.75,5.75,0,0,1,.32,2V92.8a5.77,5.77,0,0,1-.32,2,4,4,0,0,1-.89,1.46,3.48,3.48,0,0,1-1.37.88A5.22,5.22,0,0,1,301.23,97.48Zm0-9.64a3,3,0,0,0-1.14.2,2.32,2.32,0,0,0-.9.61,3,3,0,0,0-.59,1.1,5.07,5.07,0,0,0-.22,1.6v1.29a5.07,5.07,0,0,0,.22,1.6,2.91,2.91,0,0,0,.59,1.09,2.24,2.24,0,0,0,.9.62,3.38,3.38,0,0,0,2.29,0,2.24,2.24,0,0,0,.9-.62,2.91,2.91,0,0,0,.59-1.09,5.4,5.4,0,0,0,.21-1.6V91.35a5.4,5.4,0,0,0-.21-1.6,3,3,0,0,0-.59-1.1,2.32,2.32,0,0,0-.9-.61A3.05,3.05,0,0,0,301.23,87.84Z"/><path class="cls-16" d="M316.08,86.67v6.38a6.75,6.75,0,0,1-.27,2,3.43,3.43,0,0,1-.77,1.38,2.87,2.87,0,0,1-1.24.77,6.25,6.25,0,0,1-3.36,0,3,3,0,0,1-1.25-.77,3.53,3.53,0,0,1-.76-1.38,6.75,6.75,0,0,1-.27-2V86.67h1.46v6.2a6.7,6.7,0,0,0,.15,1.53,2.53,2.53,0,0,0,.46,1A1.84,1.84,0,0,0,311,96a3.51,3.51,0,0,0,2.22,0,1.84,1.84,0,0,0,.78-.57,2.53,2.53,0,0,0,.46-1,6.7,6.7,0,0,0,.15-1.53v-6.2Z"/><path class="cls-16" d="M320.47,97.32H319V86.67h3.86a4.37,4.37,0,0,1,1.45.22,3.14,3.14,0,0,1,1.06.61,2.6,2.6,0,0,1,.66.91,3,3,0,0,1,.23,1.17V90a2.81,2.81,0,0,1-.47,1.6,2.74,2.74,0,0,1-1.32,1l2.11,4.73H325l-1.92-4.45h-2.61Zm0-5.69h2a2.67,2.67,0,0,0,1.77-.46,1.59,1.59,0,0,0,.52-1.25v-.3a1.59,1.59,0,0,0-.51-1.24,2.46,2.46,0,0,0-1.63-.46h-2.18Z"/><path class="cls-16" d="M333.47,86.67h3.78c2.25,0,3.38.87,3.38,2.6v.31a2.72,2.72,0,0,1-.09.69,1.85,1.85,0,0,1-.82,1.1,2.54,2.54,0,0,1-.8.34,2.74,2.74,0,0,1,1.58.73,2.26,2.26,0,0,1,.62,1.7v.37a2.6,2.6,0,0,1-.84,2.06,3.74,3.74,0,0,1-2.57.75h-4.24Zm1.46,1.25v3.24h1.89a7.26,7.26,0,0,0,1-.06,1.85,1.85,0,0,0,.73-.24,1.1,1.1,0,0,0,.45-.48,1.76,1.76,0,0,0,.16-.82V89.3a1.7,1.7,0,0,0-.14-.75.92.92,0,0,0-.44-.41,2.57,2.57,0,0,0-.77-.18c-.3,0-.66,0-1.07,0Zm0,8.13h2.23a7.13,7.13,0,0,0,1.09-.07,1.94,1.94,0,0,0,.76-.24,1.09,1.09,0,0,0,.45-.48,1.75,1.75,0,0,0,.15-.78v-.32a2.26,2.26,0,0,0-.13-.83,1.19,1.19,0,0,0-.46-.56,2.27,2.27,0,0,0-.86-.32,8.07,8.07,0,0,0-1.33-.09h-1.9Z"/><path class="cls-16" d="M350.1,86.67v1.25h-5.17v3.31h4.86v1.26h-4.86v3.57h5.27v1.26h-6.73V86.67Z"/><path class="cls-16" d="M355.2,97.32v-9.4H352V86.67h8v1.25h-3.25v9.4Z"/><path class="cls-16" d="M364.25,97.32v-9.4H361V86.67h8v1.25h-3.25v9.4Z"/><path class="cls-16" d="M377.66,86.67v1.25h-5.17v3.31h4.86v1.26h-4.86v3.57h5.28v1.26H371V86.67Z"/><path class="cls-16" d="M382,97.32h-1.47V86.67h3.86a4.37,4.37,0,0,1,1.45.22,3,3,0,0,1,1.06.61,2.48,2.48,0,0,1,.66.91,3,3,0,0,1,.23,1.17V90a2.81,2.81,0,0,1-.47,1.6,2.74,2.74,0,0,1-1.32,1l2.11,4.73h-1.58l-1.92-4.45H382Zm0-5.69h2a2.65,2.65,0,0,0,1.76-.46,1.59,1.59,0,0,0,.53-1.25v-.3a1.6,1.6,0,0,0-.52-1.24,2.46,2.46,0,0,0-1.63-.46H382Z"/><path class="cls-16" d="M407.73,86.67l-2.94,10.65h-1.47L401,88.62l-2.41,8.7h-1.49l-2.91-10.65h1.54l2.18,8.7,2.38-8.7h1.42l2.38,8.7,2.21-8.7Z"/><path class="cls-16" d="M418.41,97.32h-1.54l-1.12-3.13h-4.08l-1.12,3.13h-1.5l4-10.65h1.42Zm-6.3-4.39h3.19l-.88-2.49-.21-.57c-.06-.17-.11-.32-.16-.48l-.16-.48c-.05-.16-.11-.37-.18-.62-.08.25-.15.46-.19.63s-.1.33-.15.48l-.16.47c0,.16-.12.35-.2.57Z"/><path class="cls-16" d="M424.68,93v4.28h-1.46V93l-3.66-6.37h1.62l2.79,5,2.72-5h1.63Z"/><polygon class="cls-17" points="446.74 16.2 437.92 16.2 437.92 7.39 429.12 7.39 429.12 16.2 420.3 16.2 420.3 25.02 429.12 25.02 429.12 33.83 437.92 33.83 437.92 25.02 446.74 25.02 446.74 16.2"/></g></g></svg>