<?xml version="1.0" encoding="utf-8"?>
<!-- Generator: Adobe Illustrator 26.4.1, SVG Export Plug-In . SVG Version: 6.00 Build 0)  -->
<svg version="1.1" id="레이어_1" xmlns="http://www.w3.org/2000/svg" xmlns:xlink="http://www.w3.org/1999/xlink" x="0px"
	 y="0px" viewBox="0 0 50 50" style="enable-background:new 0 0 50 50;" xml:space="preserve">
<style type="text/css">
	.st0{fill:#FFBF00;}
</style>
<g>
	<ellipse class="st0" cx="25" cy="24.8" rx="12" ry="12"/>
	<g>
		<path class="st0" d="M25,9.6c-0.8,0-1.5-0.7-1.5-1.5V1.5C23.5,0.7,24.2,0,25,0s1.5,0.7,1.5,1.5v6.6C26.5,8.9,25.8,9.6,25,9.6z"/>
	</g>
	<g>
		<path class="st0" d="M25,50c-0.8,0-1.5-0.7-1.5-1.5v-6.6c0-0.8,0.7-1.5,1.5-1.5s1.5,0.7,1.5,1.5v6.6C26.5,49.3,25.8,50,25,50z"/>
	</g>
	<g>
		<path class="st0" d="M48.5,26.5h-6.6c-0.8,0-1.5-0.7-1.5-1.5s0.7-1.5,1.5-1.5h6.6c0.8,0,1.5,0.7,1.5,1.5S49.3,26.5,48.5,26.5z"/>
	</g>
	<g>
		<path class="st0" d="M1.5,26.5h6.6c0.8,0,1.5-0.7,1.5-1.5s-0.7-1.5-1.5-1.5H1.5C0.7,23.5,0,24.2,0,25S0.7,26.5,1.5,26.5z"/>
	</g>
	<g>
		<path class="st0" d="M13,14.6c-0.4,0-0.8-0.1-1.1-0.4L7.3,9.5C6.7,8.9,6.7,8,7.3,7.4s1.5-0.6,2.1,0L14,12c0.6,0.6,0.6,1.5,0,2.1
			C13.8,14.4,13.4,14.6,13,14.6z"/>
	</g>
	<g>
		<path class="st0" d="M41.6,43.1c-0.4,0-0.8-0.1-1.1-0.4L35.9,38c-0.6-0.6-0.6-1.5,0-2.1s1.5-0.6,2.1,0l4.6,4.6
			c0.6,0.6,0.6,1.5,0,2.1C42.4,43,42,43.1,41.6,43.1z"/>
	</g>
	<g>
		<path class="st0" d="M8.4,43.1c-0.4,0-0.8-0.1-1.1-0.4c-0.6-0.6-0.6-1.5,0-2.1l4.6-4.6c0.6-0.6,1.5-0.6,2.1,0s0.6,1.5,0,2.1
			l-4.6,4.6C9.2,43,8.8,43.1,8.4,43.1z"/>
	</g>
	<g>
		<path class="st0" d="M37,14.6c-0.4,0-0.8-0.1-1.1-0.4c-0.6-0.6-0.6-1.5,0-2.1l4.6-4.6c0.6-0.6,1.5-0.6,2.1,0s0.6,1.5,0,2.1
			L38,14.1C37.7,14.4,37.3,14.6,37,14.6z"/>
	</g>
</g>
</svg>
