<?xml version="1.0" encoding="utf-8"?>
<!-- Generator: Adobe Illustrator 26.4.1, SVG Export Plug-In . SVG Version: 6.00 Build 0)  -->
<svg version="1.1" id="레이어_1" xmlns="http://www.w3.org/2000/svg" xmlns:xlink="http://www.w3.org/1999/xlink" x="0px"
	 y="0px" viewBox="0 0 50 50" style="enable-background:new 0 0 50 50;" xml:space="preserve">
<style type="text/css">
	.st0{fill:#0066DB;}
	.st1{fill:#99CCFF;}
	.st2{fill:#FFBF00;}
</style>
<circle class="st0" cx="39.3" cy="5.1" r="1.9"/>
<path class="st0" d="M31.7,16c-0.7-0.7-0.8-1.9,0-2.7c0.7-0.7,1.9-0.8,2.7,0c0.8,0.8,0.8,1.9,0,2.7C33.7,16.7,32.5,16.7,31.7,16z"/>
<path class="st1" d="M33.9,48.1c0,1-0.8,1.9-1.9,1.9s-1.9-0.8-1.9-1.9s0.8-1.9,1.9-1.9C33.1,46.2,33.9,47.1,33.9,48.1z"/>
<path class="st2" d="M47.6,27.5c0,0.8-0.7,1.5-1.5,1.5s-1.5-0.7-1.5-1.5s0.7-1.5,1.5-1.5S47.6,26.7,47.6,27.5z"/>
<path class="st0" d="M17.3,48.1c0,0.8-0.7,1.5-1.5,1.5s-1.5-0.7-1.5-1.5s0.7-1.5,1.5-1.5C16.6,46.6,17.3,47.3,17.3,48.1z"/>
<path class="st2" d="M33.3,25.9c-0.6-0.6-0.6-1.6,0-2.1s1.6-0.6,2.1,0s0.6,1.6,0,2.1S33.9,26.5,33.3,25.9z"/>
<path class="st1" d="M22.8,1.5c0,0.8-0.7,1.5-1.5,1.5s-1.5-0.7-1.5-1.5S20.4,0,21.3,0C22.1,0,22.8,0.7,22.8,1.5z"/>
<path class="st1" d="M9.5,9.7H6.4V6.6C6.4,6.3,6.1,6,5.8,6S5.3,6.3,5.3,6.6v3.1H2.2c-0.3,0-0.6,0.3-0.6,0.6s0.3,0.6,0.6,0.6h3.1V14
	c0,0.3,0.3,0.6,0.6,0.6s0.6-0.3,0.6-0.6v-3.1h3.1c0.3,0,0.6-0.3,0.6-0.6S9.8,9.7,9.5,9.7z"/>
<path class="st0" d="M48.2,41.4h-3.1v-3.1c0-0.3-0.3-0.6-0.6-0.6s-0.6,0.3-0.6,0.6v3.1h-3.1c-0.3,0-0.6,0.3-0.6,0.6s0.3,0.6,0.6,0.6
	H44v3.1c0,0.3,0.3,0.6,0.6,0.6s0.6-0.3,0.6-0.6v-3.1h3.1c0.3,0,0.6-0.3,0.6-0.6C48.8,41.6,48.5,41.4,48.2,41.4z"/>
<path class="st2" d="M5.7,41.1H4.3v-1.4c0-0.3-0.3-0.6-0.6-0.6s-0.6,0.3-0.6,0.6v1.4H1.8c-0.3,0-0.6,0.3-0.6,0.6s0.3,0.6,0.6,0.6
	h1.4v1.4c0,0.3,0.3,0.6,0.6,0.6s0.6-0.3,0.6-0.6v-1.4h1.4c0.3,0,0.6-0.3,0.6-0.6C6.3,41.3,6,41.1,5.7,41.1z"/>
<path class="st2" d="M13.7,36.7c-7.3-7.3-7.3-19,0-26.3c1.8-1.8,4.1-3.3,6.3-4.2c-4.6,6.7-3.9,16.1,2.1,22c6,6,15.3,6.6,22,2.1
	C39.3,42.8,23.2,46.2,13.7,36.7z"/>
</svg>
