<?xml version="1.0" encoding="utf-8"?>
<!-- Generator: Adobe Illustrator 26.4.1, SVG Export Plug-In . SVG Version: 6.00 Build 0)  -->
<svg version="1.1" id="레이어_1" xmlns="http://www.w3.org/2000/svg" xmlns:xlink="http://www.w3.org/1999/xlink" x="0px"
	 y="0px" viewBox="0 0 50 50" style="enable-background:new 0 0 50 50;" xml:space="preserve">
<style type="text/css">
	.st0{fill:#FFBF00;}
	.st1{fill:#99CCFF;}
</style>
<g>
	<g>
		<circle class="st0" cx="17.8" cy="25.9" r="8.6"/>
		<g>
			<path class="st0" d="M17.8,15.1c-0.6,0-1.1-0.5-1.1-1.1V9.3c0-0.6,0.5-1.1,1.1-1.1c0.6,0,1.1,0.5,1.1,1.1V14
				C18.9,14.6,18.4,15.1,17.8,15.1z"/>
		</g>
		<g>
			<path class="st0" d="M5.8,27.1H1.1C0.5,27.1,0,26.6,0,26c0-0.6,0.5-1.1,1.1-1.1h4.7c0.6,0,1.1,0.5,1.1,1.1
				C6.8,26.6,6.4,27.1,5.8,27.1z"/>
		</g>
		<g>
			<path class="st0" d="M9.3,18.6c-0.3,0-0.6-0.1-0.8-0.3L5.2,15c-0.4-0.4-0.4-1.1,0-1.5s1.1-0.4,1.5,0l3.3,3.3
				c0.4,0.4,0.4,1.1,0,1.5C9.9,18.5,9.6,18.6,9.3,18.6z"/>
		</g>
		<g>
			<path class="st0" d="M6,38.9c-0.3,0-0.6-0.1-0.8-0.3c-0.4-0.4-0.4-1.1,0-1.5l3.3-3.3c0.4-0.4,1.1-0.4,1.5,0s0.4,1.1,0,1.5
				l-3.3,3.3C6.5,38.8,6.3,38.9,6,38.9z"/>
		</g>
		<g>
			<path class="st0" d="M26.4,18.6c-0.3,0-0.6-0.1-0.8-0.3c-0.4-0.4-0.4-1.1,0-1.5l3.3-3.3c0.4-0.4,1.1-0.4,1.5,0s0.4,1.1,0,1.5
				l-3.3,3.3C26.9,18.5,26.6,18.6,26.4,18.6z"/>
		</g>
	</g>
	<g>
		<path class="st1" d="M50,36.3c0,3-2.4,5.5-5.5,5.5c-0.1,0,1.7,0-28,0c-3.9-0.1-5.8-4.7-3.3-7.6c1.6-1.7,4.2-2,6-0.8
			c-0.4-1.4-0.1-2.8,0.5-3.8c1.7-3,5.8-3.5,8.1-1.1c0.5-3.9,3.9-6.8,7.9-6.8c4.8,0,8.6,4.3,7.9,9.1C47,30.3,50,33,50,36.3z"/>
	</g>
</g>
</svg>
