<?xml version="1.0" encoding="utf-8"?>
<!-- Generator: Adobe Illustrator 26.4.1, SVG Export Plug-In . SVG Version: 6.00 Build 0)  -->
<svg version="1.1" id="레이어_1" xmlns="http://www.w3.org/2000/svg" xmlns:xlink="http://www.w3.org/1999/xlink" x="0px"
	 y="0px" viewBox="0 0 50 50" style="enable-background:new 0 0 50 50;" xml:space="preserve">
<style type="text/css">
	.st0{fill:#FFBF00;}
	.st1{fill:#99CCFF;}
</style>
<g>
	<path class="st0" d="M22.3,32c-6.2-6.2-6.2-16.1,0-22.3c1.6-1.6,3.5-2.8,5.3-3.5c-3.9,5.7-3.3,13.6,1.7,18.6
		c5.1,5.1,12.9,5.6,18.6,1.7C44,37.1,30.3,40,22.3,32z"/>
	<g>
		<path class="st1" d="M8.4,32.9c-0.7-4.8,3-9.1,7.9-9.1c4,0,7.3,3,7.9,6.8c2.3-2.4,6.4-1.9,8.1,1.1c0.5,1,0.8,2.4,0.5,3.8
			c1.8-1.2,4.4-1,6,0.8c2.6,2.9,0.6,7.5-3.3,7.6c-29.7,0-27.9,0-28,0c-3.1,0-5.5-2.5-5.5-5.5C2,35,5,32.3,8.4,32.9z"/>
	</g>
</g>
</svg>
