<?xml version="1.0" encoding="utf-8"?>
<!-- Generator: Adobe Illustrator 26.4.1, SVG Export Plug-In . SVG Version: 6.00 Build 0)  -->
<svg version="1.1" id="레이어_1" xmlns="http://www.w3.org/2000/svg" xmlns:xlink="http://www.w3.org/1999/xlink" x="0px"
	 y="0px" viewBox="0 0 50 50" style="enable-background:new 0 0 50 50;" xml:space="preserve">
<style type="text/css">
	.st0{fill:#0066DB;}
	.st1{fill:#FFBF00;}
	.st2{fill:#99CCFF;}
</style>
<g>
	<g>
		<path class="st0" d="M4.6,28.8c-0.5-3.4,2.2-6.5,5.7-6.5c2.9,0,5.3,2.1,5.7,4.9c1.7-1.7,4.6-1.4,5.8,0.8c0.4,0.7,0.6,1.7,0.3,2.7
			c1.3-0.9,3.2-0.7,4.3,0.5c1.8,2.1,0.4,5.4-2.3,5.4c-21.3,0-20,0-20,0c-2.2,0-4-1.8-4-4C0,30.3,2.2,28.4,4.6,28.8z"/>
	</g>
	<g>
		<circle class="st1" cx="20.2" cy="25.5" r="8.6"/>
		<g>
			<path class="st1" d="M20.2,14.7c-0.6,0-1.1-0.5-1.1-1.1V8.9c0-0.6,0.5-1.1,1.1-1.1c0.6,0,1.1,0.5,1.1,1.1v4.7
				C21.3,14.2,20.8,14.7,20.2,14.7z"/>
		</g>
		<g>
			<path class="st1" d="M8.2,26.7H3.5c-0.6,0-1.1-0.5-1.1-1.1c0-0.6,0.5-1.1,1.1-1.1h4.7c0.6,0,1.1,0.5,1.1,1.1
				C9.2,26.2,8.8,26.7,8.2,26.7z"/>
		</g>
		<g>
			<path class="st1" d="M11.7,18.2c-0.3,0-0.6-0.1-0.8-0.3l-3.3-3.3c-0.4-0.4-0.4-1.1,0-1.5c0.4-0.4,1.1-0.4,1.5,0l3.3,3.3
				c0.4,0.4,0.4,1.1,0,1.5C12.3,18.1,12,18.2,11.7,18.2z"/>
		</g>
		<g>
			<path class="st1" d="M8.4,38.6c-0.3,0-0.6-0.1-0.8-0.3c-0.4-0.4-0.4-1.1,0-1.5l3.3-3.3c0.4-0.4,1.1-0.4,1.5,0s0.4,1.1,0,1.5
				l-3.3,3.3C8.9,38.5,8.7,38.6,8.4,38.6z"/>
		</g>
		<g>
			<path class="st1" d="M28.8,18.2c-0.3,0-0.6-0.1-0.8-0.3c-0.4-0.4-0.4-1.1,0-1.5l3.3-3.3c0.4-0.4,1.1-0.4,1.5,0s0.4,1.1,0,1.5
				l-3.3,3.3C29.3,18.1,29,18.2,28.8,18.2z"/>
		</g>
	</g>
	<g>
		<path class="st2" d="M50,36.7c0,3-2.4,5.5-5.5,5.5c-0.1,0,1.7,0-28,0c-3.9-0.1-5.8-4.7-3.3-7.6c1.6-1.7,4.2-2,6-0.8
			c-0.4-1.4-0.1-2.8,0.5-3.8c1.7-3,5.8-3.5,8.1-1.1c0.5-3.9,3.9-6.8,7.9-6.8c4.8,0,8.6,4.3,7.9,9.1C47,30.7,50,33.3,50,36.7z"/>
	</g>
</g>
</svg>
