<?xml version="1.0" encoding="utf-8"?>
<!-- Generator: Adobe Illustrator 26.4.1, SVG Export Plug-In . SVG Version: 6.00 Build 0)  -->
<svg version="1.1" id="레이어_1" xmlns="http://www.w3.org/2000/svg" xmlns:xlink="http://www.w3.org/1999/xlink" x="0px"
	 y="0px" viewBox="0 0 50 50" style="enable-background:new 0 0 50 50;" xml:space="preserve">
<style type="text/css">
	.st0{fill:#0066DB;}
	.st1{fill:#FFBF00;}
	.st2{fill:#99CCFF;}
</style>
<g>
	<g>
		<path class="st0" d="M50,34.3c0,2.2-1.7,4-4,4c-0.1,0,1.2,0-20,0c-2.8-0.1-4.2-3.4-2.3-5.4c1.1-1.2,3-1.4,4.3-0.5
			c-0.3-1-0.1-2,0.3-2.7c1.2-2.1,4.1-2.5,5.8-0.8c0.4-2.8,2.8-4.9,5.7-4.9c3.5,0,6.1,3.1,5.7,6.5C47.8,30,50,31.9,50,34.3z"/>
	</g>
	<path class="st1" d="M19.4,32c-6.2-6.2-6.2-16.1,0-22.3c1.6-1.6,3.5-2.8,5.3-3.5c-3.9,5.7-3.3,13.6,1.7,18.6
		c5.1,5.1,12.9,5.6,18.6,1.7C41,37.1,27.4,40,19.4,32z"/>
	<g>
		<path class="st2" d="M6.4,32.9c-0.7-4.8,3-9.1,7.9-9.1c4,0,7.3,3,7.9,6.8c2.3-2.4,6.4-1.9,8.1,1.1c0.5,1,0.8,2.4,0.5,3.8
			c1.8-1.2,4.4-1,6,0.8c2.6,2.9,0.6,7.5-3.3,7.6c-29.7,0-27.9,0-28,0c-3.1,0-5.5-2.5-5.5-5.5C0,35,3,32.3,6.4,32.9z"/>
	</g>
</g>
</svg>
