<?xml version="1.0" encoding="utf-8"?>
<!-- Generator: Adobe Illustrator 26.4.1, SVG Export Plug-In . SVG Version: 6.00 Build 0)  -->
<svg version="1.1" id="레이어_1" xmlns="http://www.w3.org/2000/svg" xmlns:xlink="http://www.w3.org/1999/xlink" x="0px"
	 y="0px" viewBox="0 0 50 50" style="enable-background:new 0 0 50 50;" xml:space="preserve">
<style type="text/css">
	.st0{fill:#0066DB;}
	.st1{fill:#99CCFF;}
</style>
<g>
	<path class="st0" d="M30.6,16.6c-5,0.3-9.1,4.1-9.8,9c-3.1-3.2-8.5-2.5-10.7,1.4l0,0c-4.7,0-4.6,0-4.6,0c-3,0-5.5-2.4-5.5-5.5
		c0-3.4,3-6,6.4-5.4c-0.7-4.8,3-9,7.8-9c4,0,7.3,2.9,7.8,6.8C24.8,11.1,29.8,12.6,30.6,16.6z"/>
	<path class="st1" d="M50,35.6c0,4-3.2,7.3-7.3,7.3c-0.1,0,2.3,0-36.9,0c-5.1-0.1-7.7-6.2-4.3-10c2.1-2.3,5.5-2.6,7.9-1
		c-0.5-1.8-0.1-3.7,0.6-5c2.2-3.9,7.6-4.6,10.7-1.4c0.7-5.1,5.1-9,10.4-9c6.4,0,11.3,5.7,10.4,12C46,27.7,50,31.2,50,35.6z"/>
</g>
</svg>
