<?xml version="1.0" encoding="utf-8"?>
<!-- Generator: Adobe Illustrator 26.4.1, SVG Export Plug-In . SVG Version: 6.00 Build 0)  -->
<svg version="1.1" id="레이어_1" xmlns="http://www.w3.org/2000/svg" xmlns:xlink="http://www.w3.org/1999/xlink" x="0px"
	 y="0px" viewBox="0 0 50 50" style="enable-background:new 0 0 50 50;" xml:space="preserve">
<style type="text/css">
	.st0{fill:#0066DB;}
	.st1{fill:none;stroke:#99CCFF;stroke-linecap:round;stroke-linejoin:round;stroke-miterlimit:10;}
	.st2{fill:none;stroke:#0066DB;stroke-linecap:round;stroke-linejoin:round;stroke-miterlimit:10;}
</style>
<g>
	<path class="st0" d="M49.1,22c-1.7-2.5-5.2-2.9-7.4-0.9c0.5-4.8-3.3-9-8.1-9c-1.9,0-3.6,0.6-4.9,1.7C28.5,8.3,23.9,4,18.4,4
		c-6.2,0-11,5.5-10.1,11.7c-4.4-0.8-8.3,2.6-8.3,7c0,3.9,3.2,7.1,7.1,7.1H45C49,29.7,51.4,25.2,49.1,22z"/>
	<g>
		<g>
			<line class="st1" x1="9.5" y1="33.6" x2="9.5" y2="38.4"/>
			<line class="st1" x1="9.5" y1="41.2" x2="9.5" y2="46"/>
		</g>
		<g>
			<line class="st2" x1="17.2" y1="33.6" x2="17.2" y2="38.4"/>
			<line class="st2" x1="17.2" y1="41.2" x2="17.2" y2="46"/>
		</g>
		<g>
			<line class="st1" x1="25" y1="33.6" x2="25" y2="38.4"/>
			<line class="st1" x1="25" y1="41.2" x2="25" y2="46"/>
		</g>
		<g>
			<line class="st2" x1="32.7" y1="33.6" x2="32.7" y2="38.4"/>
			<line class="st2" x1="32.7" y1="41.2" x2="32.7" y2="46"/>
		</g>
		<g>
			<line class="st1" x1="40.4" y1="33.6" x2="40.4" y2="38.4"/>
			<line class="st1" x1="40.4" y1="41.2" x2="40.4" y2="46"/>
		</g>
	</g>
</g>
</svg>
