<?xml version="1.0" encoding="utf-8"?>
<!-- Generator: Adobe Illustrator 26.4.1, SVG Export Plug-In . SVG Version: 6.00 Build 0)  -->
<svg version="1.1" id="레이어_1" xmlns="http://www.w3.org/2000/svg" xmlns:xlink="http://www.w3.org/1999/xlink" x="0px"
	 y="0px" viewBox="0 0 50 50" style="enable-background:new 0 0 50 50;" xml:space="preserve">
<style type="text/css">
	.st0{fill:#0066DB;}
	.st1{fill:#99CCFF;}
</style>
<g>
	<g>
		<path class="st0" d="M49.1,20.9c-1.7-2.5-5.2-2.9-7.4-0.9c0.5-4.8-3.3-9-8.1-9c-1.9,0-3.6,0.6-4.9,1.7c-0.2-5.5-4.7-9.8-10.2-9.8
			c-6.2,0-11,5.5-10.1,11.7c-4.4-0.8-8.3,2.6-8.3,7c0,3.9,3.2,7.1,7.1,7.1H45C49,28.6,51.4,24.1,49.1,20.9z"/>
		<g>
			<path class="st1" d="M7,39c-0.3-0.2-0.3-0.5-0.2-0.8l3.7-6c0.2-0.3,0.5-0.3,0.8-0.2c0.3,0.2,0.3,0.5,0.2,0.8l-3.7,6
				C7.6,39.1,7.3,39.2,7,39z"/>
			<path class="st0" d="M11.2,47.1c-0.3-0.2-0.3-0.5-0.2-0.8l8.6-14.1c0.2-0.3,0.5-0.3,0.8-0.2c0.3,0.2,0.3,0.5,0.2,0.8L12,46.9
				C11.8,47.1,11.5,47.2,11.2,47.1z"/>
			<path class="st1" d="M39.3,46.1c-0.3-0.2-0.3-0.5-0.2-0.8l3.1-5.1c0.2-0.3,0.5-0.3,0.8-0.2c0.3,0.2,0.3,0.5,0.2,0.8L40,45.9
				C39.9,46.2,39.5,46.3,39.3,46.1z"/>
			<g>
				<path class="st1" d="M22,44.4c-0.3-0.2-0.3-0.5-0.2-0.8l4.4-7.2c0.2-0.3,0.5-0.3,0.8-0.2c0.3,0.2,0.3,0.5,0.2,0.8l-4.4,7.2
					C22.7,44.4,22.3,44.5,22,44.4z"/>
			</g>
			<g>
				<path class="st0" d="M34.5,39c-0.3-0.2-0.3-0.5-0.2-0.8l3.7-6c0.2-0.3,0.5-0.3,0.8-0.2c0.3,0.2,0.3,0.5,0.2,0.8l-3.7,6
					C35.1,39.1,34.7,39.2,34.5,39z"/>
			</g>
		</g>
	</g>
</g>
</svg>
