<?xml version="1.0" encoding="utf-8"?>
<!-- Generator: Adobe Illustrator 26.4.1, SVG Export Plug-In . SVG Version: 6.00 Build 0)  -->
<svg version="1.1" id="레이어_1" xmlns="http://www.w3.org/2000/svg" xmlns:xlink="http://www.w3.org/1999/xlink" x="0px"
	 y="0px" viewBox="0 0 50 50" style="enable-background:new 0 0 50 50;" xml:space="preserve">
<style type="text/css">
	.st0{fill:#99CCFF;}
	.st1{fill:#0066DB;}
	.st2{fill:#FFBF00;}
</style>
<g>
	<g>
		<g>
			<g>
				<g>
					<path class="st0" d="M7,39.8c-0.3-0.2-0.3-0.5-0.2-0.8l3.7-6c0.2-0.3,0.5-0.3,0.8-0.2c0.3,0.2,0.3,0.5,0.2,0.8l-3.7,6
						C7.6,39.9,7.3,40,7,39.8z"/>
					<path class="st1" d="M11.2,47.9c-0.3-0.2-0.3-0.5-0.2-0.8L19.6,33c0.2-0.3,0.5-0.3,0.8-0.2c0.3,0.2,0.3,0.5,0.2,0.8L12,47.7
						C11.8,47.9,11.5,48,11.2,47.9z"/>
					<path class="st0" d="M39.3,46.9c-0.3-0.2-0.3-0.5-0.2-0.8l3.1-5.1c0.2-0.3,0.5-0.3,0.8-0.2c0.3,0.2,0.3,0.5,0.2,0.8L40,46.7
						C39.9,47,39.5,47.1,39.3,46.9z"/>
					<g>
						<path class="st0" d="M22,45.2c-0.3-0.2-0.3-0.5-0.2-0.8l4.4-7.2c0.2-0.3,0.5-0.3,0.8-0.2c0.3,0.2,0.3,0.5,0.2,0.8L22.8,45
							C22.7,45.2,22.3,45.3,22,45.2z"/>
					</g>
					<g>
						<path class="st1" d="M34.5,39.8c-0.3-0.2-0.3-0.5-0.2-0.8l3.7-6c0.2-0.3,0.5-0.3,0.8-0.2c0.3,0.2,0.3,0.5,0.2,0.8l-3.7,6
							C35.1,39.9,34.7,40,34.5,39.8z"/>
					</g>
				</g>
			</g>
		</g>
	</g>
	<g>
		<g>
			<circle class="st2" cx="10.5" cy="12.4" r="5"/>
			<g>
				<path class="st2" d="M10.5,6.1c-0.4,0-0.6-0.3-0.6-0.6V2.7c0-0.4,0.3-0.6,0.6-0.6s0.6,0.3,0.6,0.6v2.8
					C11.1,5.8,10.8,6.1,10.5,6.1z"/>
			</g>
			<g>
				<path class="st2" d="M3.4,13.1H0.7c-0.4,0-0.6-0.3-0.6-0.6s0.3-0.6,0.6-0.6h2.8c0.4,0,0.6,0.3,0.6,0.6C4,12.8,3.8,13.1,3.4,13.1
					z"/>
			</g>
			<g>
				<path class="st2" d="M5.5,8.1C5.3,8.1,5.1,8.1,5,8L3.1,6c-0.2-0.2-0.2-0.6,0-0.9c0.2-0.2,0.6-0.2,0.9,0l1.9,1.9
					c0.2,0.2,0.2,0.6,0,0.9C5.8,8.1,5.7,8.1,5.5,8.1z"/>
			</g>
			<g>
				<path class="st2" d="M3.5,20.1c-0.2,0-0.4-0.1-0.5-0.2c-0.2-0.2-0.2-0.6,0-0.9L5,17.1c0.2-0.2,0.6-0.2,0.9,0
					c0.2,0.2,0.2,0.6,0,0.9L4,19.9C3.8,20,3.7,20.1,3.5,20.1z"/>
			</g>
			<g>
				<path class="st2" d="M15.5,8.1c-0.2,0-0.4-0.1-0.5-0.2c-0.2-0.2-0.2-0.6,0-0.9L17,5.2c0.2-0.2,0.6-0.2,0.9,0s0.2,0.6,0,0.9
					L15.9,8C15.8,8.1,15.6,8.1,15.5,8.1z"/>
			</g>
		</g>
		<g>
			<path class="st1" d="M50,21.1c0,4-3.2,7.3-7.3,7.3c-0.1,0,2.3,0-36.9,0c-5.1-0.1-7.7-6.2-4.3-10c2.1-2.3,5.5-2.6,7.9-1
				c-0.5-1.8-0.1-3.7,0.6-5c2.2-3.9,7.6-4.6,10.7-1.4c0.7-5.1,5.1-9,10.4-9c6.4,0,11.3,5.7,10.4,12C46,13.2,50,16.7,50,21.1z"/>
		</g>
	</g>
</g>
</svg>
