<?xml version="1.0" encoding="utf-8"?>
<!-- Generator: Adobe Illustrator 26.4.1, SVG Export Plug-In . SVG Version: 6.00 Build 0)  -->
<svg version="1.1" id="레이어_1" xmlns="http://www.w3.org/2000/svg" xmlns:xlink="http://www.w3.org/1999/xlink" x="0px"
	 y="0px" viewBox="0 0 50 50" style="enable-background:new 0 0 50 50;" xml:space="preserve">
<style type="text/css">
	.st0{fill:#0066DB;}
	.st1{fill:#99CCFF;}
</style>
<g>
	<path class="st0" d="M49.1,18.9c-1.7-2.5-5.2-2.9-7.4-0.9c0.5-4.8-3.3-9-8.1-9c-1.9,0-3.6,0.6-4.9,1.7c-0.2-5.5-4.7-9.8-10.2-9.8
		c-6.2,0-11,5.5-10.1,11.7c-4.4-0.8-8.3,2.6-8.3,7c0,3.9,3.2,7.1,7.1,7.1H45C49,26.7,51.4,22.1,49.1,18.9z"/>
	<path class="st0" d="M38.9,34.9l-2.3-1.3l2.3-1.3c0.3-0.2,0.4-0.5,0.2-0.8c-0.2-0.3-0.5-0.4-0.8-0.2L36,32.7V30
		c0-0.3-0.2-0.6-0.6-0.6c-0.3,0-0.6,0.2-0.6,0.6v2.6l-2.3-1.3c-0.3-0.2-0.6-0.1-0.8,0.2c-0.2,0.3-0.1,0.6,0.2,0.8l2.3,1.3l-2.3,1.3
		c-0.3,0.2-0.4,0.5-0.2,0.8c0.2,0.3,0.5,0.4,0.8,0.2l2.3-1.3v2.6c0,0.3,0.2,0.6,0.6,0.6c0.3,0,0.6-0.2,0.6-0.6v-2.6l2.3,1.3
		c0.3,0.2,0.6,0.1,0.8-0.2C39.2,35.4,39.1,35.1,38.9,34.9z"/>
	<path class="st0" d="M11.3,34.9l-2.3-1.3l2.3-1.3c0.3-0.2,0.4-0.5,0.2-0.8c-0.2-0.3-0.5-0.4-0.8-0.2l-2.3,1.3V30
		c0-0.3-0.2-0.6-0.6-0.6c-0.3,0-0.6,0.2-0.6,0.6v2.6l-2.3-1.3c-0.3-0.2-0.6-0.1-0.8,0.2c-0.2,0.3-0.1,0.6,0.2,0.8l2.3,1.3l-2.3,1.3
		c-0.3,0.2-0.4,0.5-0.2,0.8c0.2,0.3,0.5,0.4,0.8,0.2l2.3-1.3v2.6c0,0.3,0.2,0.6,0.6,0.6c0.3,0,0.6-0.2,0.6-0.6v-2.6l2.3,1.3
		c0.3,0.2,0.6,0.1,0.8-0.2C11.7,35.4,11.6,35.1,11.3,34.9z"/>
	<path class="st0" d="M25.1,46.3L22.8,45l2.3-1.3c0.3-0.2,0.4-0.5,0.2-0.8c-0.2-0.3-0.5-0.4-0.8-0.2L22.3,44v-2.6
		c0-0.3-0.2-0.6-0.6-0.6c-0.3,0-0.6,0.2-0.6,0.6V44l-2.3-1.3c-0.3-0.2-0.6-0.1-0.8,0.2c-0.2,0.3-0.1,0.6,0.2,0.8l2.3,1.3l-2.3,1.3
		c-0.3,0.2-0.4,0.5-0.2,0.8c0.2,0.3,0.5,0.4,0.8,0.2l2.3-1.3v2.6c0,0.3,0.2,0.6,0.6,0.6c0.3,0,0.6-0.2,0.6-0.6v-2.6l2.3,1.3
		c0.3,0.2,0.6,0.1,0.8-0.2C25.5,46.8,25.4,46.4,25.1,46.3z"/>
	<path class="st1" d="M11.9,44c0,0.7-0.6,1.3-1.3,1.3S9.4,44.7,9.4,44c0-0.7,0.6-1.3,1.3-1.3S11.9,43.3,11.9,44z"/>
	<path class="st1" d="M25.2,33.6c0,0.7-0.6,1.3-1.3,1.3c-0.7,0-1.3-0.6-1.3-1.3s0.6-1.3,1.3-1.3C24.7,32.3,25.2,32.9,25.2,33.6z"/>
	<path class="st1" d="M45.2,41.7c0,0.7-0.6,1.3-1.3,1.3c-0.7,0-1.3-0.6-1.3-1.3c0-0.7,0.6-1.3,1.3-1.3C44.6,40.4,45.2,41,45.2,41.7z
		"/>
</g>
</svg>
