<?xml version="1.0" encoding="utf-8"?>
<!-- Generator: Adobe Illustrator 26.4.1, SVG Export Plug-In . SVG Version: 6.00 Build 0)  -->
<svg version="1.1" id="레이어_1" xmlns="http://www.w3.org/2000/svg" xmlns:xlink="http://www.w3.org/1999/xlink" x="0px"
	 y="0px" viewBox="0 0 50 50" style="enable-background:new 0 0 50 50;" xml:space="preserve">
<style type="text/css">
	.st0{fill:#0066DB;}
	.st1{fill:#99CCFF;}
</style>
<path class="st0" d="M49.1,19.2c-1.7-2.5-5.2-2.9-7.4-0.9c0.5-4.8-3.3-9-8.1-9c-1.9,0-3.6,0.6-4.9,1.7C28.5,5.5,24,1.2,18.5,1.2
	c-6.2,0-11,5.5-10.1,11.7c-4.4-0.8-8.3,2.6-8.3,7C0,23.8,3.2,27,7.1,27H45C49,27,51.4,22.5,49.1,19.2z"/>
<g>
	<g>
		<path class="st0" d="M41.1,37.1v-6c0-0.3,0.2-0.5,0.5-0.5c0.3,0,0.5,0.2,0.5,0.5v6c0,0.3-0.2,0.5-0.5,0.5
			C41.3,37.6,41.1,37.4,41.1,37.1z"/>
		<path class="st0" d="M37.9,46.6c0.2,0.3,0.5,0.4,0.8,0.2l2.2-1.2v2.5c0,0.4,0.3,0.6,0.6,0.6c0.4,0,0.6-0.3,0.6-0.6v-2.5l2.2,1.2
			c0.3,0.2,0.6,0.1,0.8-0.2c0.2-0.3,0.1-0.6-0.2-0.8l-2.2-1.2l2.4-1.2c0.3-0.2,0.4-0.5,0.2-0.8c-0.2-0.3-0.5-0.4-0.8-0.2l-2.2,1.2
			v-2.5c0-0.4-0.3-0.6-0.6-0.6c-0.4,0-0.6,0.3-0.6,0.6v2.5l-2.2-1.2c-0.3-0.2-0.6-0.1-0.8,0.2c-0.2,0.3-0.1,0.6,0.2,0.8l2.2,1.2
			l-2.2,1.2C38.1,46,38,46.3,37.9,46.6z"/>
	</g>
	<g>
		<path class="st1" d="M17.5,33c0.7,0,1.2,0.5,1.2,1.2s-0.5,1.2-1.2,1.2s-1.2-0.5-1.2-1.2S16.9,32.9,17.5,33z"/>
		<path class="st0" d="M14.1,46.6c0.2,0.3,0.5,0.4,0.8,0.2l2.2-1.2v2.5c0,0.4,0.3,0.6,0.6,0.6c0.4,0,0.6-0.3,0.6-0.6v-2.5l2.2,1.2
			c0.3,0.2,0.6,0.1,0.8-0.2c0.2-0.3,0.1-0.6-0.2-0.8l-2.2-1.2l2.2-1.2c0.3-0.2,0.4-0.5,0.2-0.8c-0.2-0.3-0.5-0.4-0.8-0.2l-2.2,1.2
			v-2.5c0-0.4-0.3-0.6-0.6-0.6c-0.4,0-0.6,0.3-0.6,0.6v2.5l-2.2-1.2c-0.3-0.2-0.6-0.1-0.8,0.2s-0.1,0.6,0.2,0.8l2.2,1.2l-2.2,1.2
			C14,46,13.9,46.3,14.1,46.6z"/>
	</g>
	<g>
		<path class="st0" d="M5,37.1v-6c0-0.3,0.2-0.5,0.5-0.5S6,30.8,6,31.1v6c0,0.3-0.2,0.5-0.5,0.5S5,37.4,5,37.1z"/>
		<path class="st1" d="M5.5,43.4c0.7,0,1.2,0.5,1.2,1.2s-0.5,1.2-1.2,1.2s-1.2-0.5-1.2-1.2C4.3,43.9,4.8,43.4,5.5,43.4z"/>
	</g>
	<g>
		<g>
			<path class="st0" d="M25.9,36.2c0.2,0.3,0.5,0.4,0.8,0.2l2.2-1.2v2.5c0,0.4,0.3,0.6,0.6,0.6c0.4,0,0.6-0.3,0.6-0.6v-2.5l2.2,1.2
				c0.3,0.2,0.6,0.1,0.8-0.2s0.1-0.6-0.2-0.8l-2.2-1.2l2.2-1.2c0.3-0.2,0.4-0.5,0.2-0.8c-0.2-0.3-0.5-0.4-0.8-0.2l-2,1.2v-2.5
				c0-0.4-0.3-0.6-0.6-0.6c-0.4,0-0.6,0.3-0.6,0.6v2.5L26.9,32c-0.3-0.2-0.6-0.1-0.8,0.2c-0.2,0.3-0.1,0.6,0.2,0.8l2.2,1.2l-2.2,1.2
				C26,35.6,25.9,35.9,25.9,36.2z"/>
		</g>
		<path class="st1" d="M29.1,47.6v-6c0-0.3,0.2-0.5,0.5-0.5s0.5,0.2,0.5,0.5v6c0,0.3-0.2,0.5-0.5,0.5S29.1,47.9,29.1,47.6z"/>
	</g>
</g>
</svg>
