<?xml version="1.0" encoding="utf-8"?>
<!-- Generator: Adobe Illustrator 26.4.1, SVG Export Plug-In . SVG Version: 6.00 Build 0)  -->
<svg version="1.1" id="레이어_1" xmlns="http://www.w3.org/2000/svg" xmlns:xlink="http://www.w3.org/1999/xlink" x="0px"
	 y="0px" viewBox="0 0 50 50" style="enable-background:new 0 0 50 50;" xml:space="preserve">
<style type="text/css">
	.st0{fill:#0066DB;}
	.st1{fill:#99CCFF;}
	.st2{fill:#FFBF00;}
</style>
<g>
	<g>
		<g>
			<path class="st0" d="M41.1,36.7v-6c0-0.3,0.2-0.5,0.5-0.5c0.3,0,0.5,0.2,0.5,0.5v6c0,0.3-0.2,0.5-0.5,0.5
				C41.3,37.2,41.1,37,41.1,36.7z"/>
			<path class="st0" d="M37.9,46.2c0.2,0.3,0.5,0.4,0.8,0.2l2.2-1.2v2.5c0,0.4,0.3,0.6,0.6,0.6c0.4,0,0.6-0.3,0.6-0.6v-2.5l2.2,1.2
				c0.3,0.2,0.6,0.1,0.8-0.2c0.2-0.3,0.1-0.6-0.2-0.8l-2.2-1.2l2.4-1.2c0.3-0.2,0.4-0.5,0.2-0.8c-0.2-0.3-0.5-0.4-0.8-0.2l-2.2,1.2
				v-2.5c0-0.4-0.3-0.6-0.6-0.6c-0.4,0-0.6,0.3-0.6,0.6v2.5L38.9,42c-0.3-0.2-0.6-0.1-0.8,0.2c-0.2,0.3-0.1,0.6,0.2,0.8l2.2,1.2
				l-2.2,1.2C38.1,45.6,38,45.9,37.9,46.2z"/>
		</g>
		<g>
			<path class="st1" d="M17.5,32.6c0.7,0,1.2,0.5,1.2,1.2S18.2,35,17.5,35s-1.2-0.5-1.2-1.2S16.9,32.5,17.5,32.6z"/>
			<path class="st0" d="M14.1,46.2c0.2,0.3,0.5,0.4,0.8,0.2l2.2-1.2v2.5c0,0.4,0.3,0.6,0.6,0.6c0.4,0,0.6-0.3,0.6-0.6v-2.5l2.2,1.2
				c0.3,0.2,0.6,0.1,0.8-0.2c0.2-0.3,0.1-0.6-0.2-0.8l-2.2-1.2l2.2-1.2c0.3-0.2,0.4-0.5,0.2-0.8c-0.2-0.3-0.5-0.4-0.8-0.2l-2.2,1.2
				v-2.5c0-0.4-0.3-0.6-0.6-0.6c-0.4,0-0.6,0.3-0.6,0.6v2.5L14.9,42c-0.3-0.2-0.6-0.1-0.8,0.2S14,42.8,14.3,43l2.2,1.2l-2.2,1.2
				C14,45.6,13.9,45.9,14.1,46.2z"/>
		</g>
		<g>
			<path class="st0" d="M5,36.7v-6c0-0.3,0.2-0.5,0.5-0.5S6,30.4,6,30.7v6c0,0.3-0.2,0.5-0.5,0.5S5,37,5,36.7z"/>
			<path class="st1" d="M5.5,43c0.7,0,1.2,0.5,1.2,1.2s-0.5,1.2-1.2,1.2s-1.2-0.5-1.2-1.2S4.8,43,5.5,43z"/>
		</g>
		<g>
			<g>
				<path class="st0" d="M25.9,35.8c0.2,0.3,0.5,0.4,0.8,0.2l2.2-1.2v2.5c0,0.4,0.3,0.6,0.6,0.6c0.4,0,0.6-0.3,0.6-0.6v-2.5l2.2,1.2
					c0.3,0.2,0.6,0.1,0.8-0.2c0.2-0.3,0.1-0.6-0.2-0.8l-2.2-1.2l2.2-1.2c0.3-0.2,0.4-0.5,0.2-0.8c-0.2-0.3-0.5-0.4-0.8-0.2l-2,1.2
					v-2.5c0-0.4-0.3-0.6-0.6-0.6c-0.4,0-0.6,0.3-0.6,0.6v2.5l-2.2-1.2c-0.3-0.2-0.6-0.1-0.8,0.2c-0.2,0.3-0.1,0.6,0.2,0.8l2.2,1.2
					L26.3,35C26,35.2,25.9,35.5,25.9,35.8z"/>
			</g>
			<path class="st1" d="M29.1,47.2v-6c0-0.3,0.2-0.5,0.5-0.5s0.5,0.2,0.5,0.5v6c0,0.3-0.2,0.5-0.5,0.5S29.1,47.5,29.1,47.2z"/>
		</g>
	</g>
	<g>
		<g>
			<circle class="st2" cx="10.4" cy="12" r="5"/>
			<g>
				<path class="st2" d="M10.4,5.7c-0.4,0-0.6-0.3-0.6-0.6V2.3c0-0.4,0.3-0.6,0.6-0.6S11,2,11,2.3v2.8C11.1,5.4,10.8,5.7,10.4,5.7z"
					/>
			</g>
			<g>
				<path class="st2" d="M3.4,12.7H0.7c-0.4,0-0.6-0.3-0.6-0.6s0.3-0.6,0.6-0.6h2.8c0.4,0,0.6,0.3,0.6,0.6C4,12.4,3.8,12.7,3.4,12.7
					z"/>
			</g>
			<g>
				<path class="st2" d="M5.5,7.7c-0.2,0-0.4,0-0.5-0.1l-1.9-2C2.8,5.4,2.8,5,3.1,4.8c0.2-0.2,0.6-0.2,0.9,0l1.9,1.9
					c0.2,0.2,0.2,0.6,0,0.9C5.8,7.7,5.6,7.7,5.5,7.7z"/>
			</g>
			<g>
				<path class="st2" d="M3.5,19.7c-0.2,0-0.4-0.1-0.5-0.2c-0.2-0.2-0.2-0.6,0-0.9l2-1.9c0.2-0.2,0.6-0.2,0.9,0
					c0.2,0.2,0.2,0.6,0,0.9L4,19.5C3.8,19.6,3.7,19.7,3.5,19.7z"/>
			</g>
			<g>
				<path class="st2" d="M15.5,7.7c-0.2,0-0.4-0.1-0.5-0.2c-0.2-0.2-0.2-0.6,0-0.9l1.9-1.9c0.2-0.2,0.6-0.2,0.9,0
					c0.2,0.2,0.2,0.6,0,0.9l-1.9,1.9C15.8,7.7,15.6,7.7,15.5,7.7z"/>
			</g>
		</g>
		<g>
			<path class="st0" d="M50,20.8c0,4-3.2,7.3-7.3,7.3c-0.1,0,2.3,0-36.9,0c-5.1-0.1-7.7-6.2-4.3-10c2.1-2.3,5.5-2.6,7.9-1
				c-0.5-1.8-0.1-3.7,0.6-5c2.2-3.9,7.6-4.6,10.7-1.4c0.7-5.1,5.1-9,10.4-9c6.4,0,11.3,5.7,10.4,12C46,12.9,50,16.4,50,20.8z"/>
		</g>
	</g>
</g>
</svg>
