<?xml version="1.0" encoding="utf-8"?>
<!-- Generator: Adobe Illustrator 26.4.1, SVG Export Plug-In . SVG Version: 6.00 Build 0)  -->
<svg version="1.1" id="레이어_1" xmlns="http://www.w3.org/2000/svg" xmlns:xlink="http://www.w3.org/1999/xlink" x="0px"
	 y="0px" viewBox="0 0 50 50" style="enable-background:new 0 0 50 50;" xml:space="preserve">
<style type="text/css">
	.st0{fill:#0066DB;}
	.st1{fill:#99CCFF;}
</style>
<path class="st0" d="M49.1,19.2c-1.7-2.5-5.2-2.9-7.4-0.9c0.5-4.8-3.3-9-8.1-9c-1.9,0-3.6,0.6-4.9,1.7c-0.2-5.5-4.7-9.8-10.2-9.8
	c-6.2,0-11,5.5-10.1,11.7c-4.4-0.8-8.3,2.6-8.3,7C0,23.8,3.2,27,7.1,27H45C49,27,51.4,22.5,49.1,19.2z"/>
<g>
	<g>
		<path class="st0" d="M8.1,37.6c-0.3,0-0.5-0.2-0.5-0.5v-6c0-0.3,0.2-0.5,0.5-0.5s0.5,0.2,0.5,0.5v6C8.6,37.4,8.4,37.6,8.1,37.6z"
			/>
		<path class="st0" d="M11.4,45.8l-2.2-1.2l2.2-1.2c0.3-0.2,0.4-0.5,0.2-0.8c-0.2-0.3-0.5-0.4-0.8-0.2l-2.2,1.2v-2.5
			c0-0.3-0.2-0.6-0.6-0.6c-0.3,0-0.6,0.2-0.6,0.6v2.5l-2.2-1.2c-0.3-0.2-0.6-0.1-0.8,0.2c-0.2,0.3-0.1,0.6,0.2,0.8L7,44.6l-2.2,1.2
			c-0.3,0.2-0.4,0.5-0.2,0.8c0.2,0.3,0.5,0.4,0.8,0.2l2.2-1.2v2.5c0,0.3,0.2,0.6,0.6,0.6c0.3,0,0.6-0.2,0.6-0.6v-2.5l2.2,1.2
			c0.3,0.2,0.6,0.1,0.8-0.2C11.7,46.3,11.6,46,11.4,45.8z"/>
	</g>
	<g>
		<path class="st1" d="M33.4,34.2c0,0.7-0.5,1.2-1.2,1.2c-0.7,0-1.2-0.5-1.2-1.2c0-0.7,0.5-1.2,1.2-1.2
			C32.8,32.9,33.4,33.5,33.4,34.2z"/>
		<path class="st0" d="M35.4,45.8l-2.2-1.2l2.2-1.2c0.3-0.2,0.4-0.5,0.2-0.8c-0.2-0.3-0.5-0.4-0.8-0.2l-2.2,1.2v-2.5
			c0-0.3-0.2-0.6-0.6-0.6c-0.3,0-0.6,0.2-0.6,0.6v2.5l-2.2-1.2c-0.3-0.2-0.6-0.1-0.8,0.2c-0.2,0.3-0.1,0.6,0.2,0.8l2.2,1.2l-2.2,1.2
			c-0.3,0.2-0.4,0.5-0.2,0.8c0.2,0.3,0.5,0.4,0.8,0.2l2.2-1.2v2.5c0,0.3,0.2,0.6,0.6,0.6c0.3,0,0.6-0.2,0.6-0.6v-2.5l2.2,1.2
			c0.3,0.2,0.6,0.1,0.8-0.2C35.8,46.3,35.7,46,35.4,45.8z"/>
	</g>
	<g>
		<path class="st0" d="M44.2,37.6c-0.3,0-0.5-0.2-0.5-0.5v-6c0-0.3,0.2-0.5,0.5-0.5s0.5,0.2,0.5,0.5v6
			C44.7,37.4,44.5,37.6,44.2,37.6z"/>
		<path class="st1" d="M45.4,44.6c0,0.7-0.5,1.2-1.2,1.2c-0.7,0-1.2-0.5-1.2-1.2c0-0.7,0.5-1.2,1.2-1.2
			C44.9,43.4,45.4,43.9,45.4,44.6z"/>
	</g>
	<g>
		<g>
			<path class="st0" d="M23.4,35.4l-2.2-1.2l2.2-1.2c0.3-0.2,0.4-0.5,0.2-0.8c-0.2-0.3-0.5-0.4-0.8-0.2l-2.2,1.2v-2.5
				c0-0.3-0.2-0.6-0.6-0.6c-0.3,0-0.6,0.2-0.6,0.6v2.5L17.4,32c-0.3-0.2-0.6-0.1-0.8,0.2c-0.2,0.3-0.1,0.6,0.2,0.8l2.2,1.2l-2.2,1.2
				c-0.3,0.2-0.4,0.5-0.2,0.8c0.2,0.3,0.5,0.4,0.8,0.2l2.2-1.2v2.5c0,0.3,0.2,0.6,0.6,0.6c0.3,0,0.6-0.2,0.6-0.6v-2.5l2.2,1.2
				c0.3,0.2,0.6,0.1,0.8-0.2C23.8,35.9,23.7,35.6,23.4,35.4z"/>
		</g>
		<path class="st1" d="M20.1,48.1c-0.3,0-0.5-0.2-0.5-0.5v-6c0-0.3,0.2-0.5,0.5-0.5s0.5,0.2,0.5,0.5v6
			C20.6,47.9,20.4,48.1,20.1,48.1z"/>
	</g>
</g>
</svg>
