<?xml version="1.0" encoding="utf-8"?>
<!-- Generator: Adobe Illustrator 26.4.1, SVG Export Plug-In . SVG Version: 6.00 Build 0)  -->
<svg version="1.1" id="레이어_1" xmlns="http://www.w3.org/2000/svg" xmlns:xlink="http://www.w3.org/1999/xlink" x="0px"
	 y="0px" viewBox="0 0 50 50" style="enable-background:new 0 0 50 50;" xml:space="preserve">
<style type="text/css">
	.st0{fill:#0066DB;}
	.st1{fill:#99CCFF;}
	.st2{fill:#FFBF00;}
</style>
<g>
	<g>
		<g>
			<path class="st0" d="M8.1,37.2c-0.3,0-0.5-0.2-0.5-0.5v-6c0-0.3,0.2-0.5,0.5-0.5s0.5,0.2,0.5,0.5v6C8.6,37,8.4,37.2,8.1,37.2z"/>
			<path class="st0" d="M11.4,45.4l-2.2-1.2l2.2-1.2c0.3-0.2,0.4-0.5,0.2-0.8s-0.5-0.4-0.8-0.2l-2.2,1.2v-2.5c0-0.3-0.2-0.6-0.6-0.6
				c-0.3,0-0.6,0.2-0.6,0.6v2.5L5.2,42c-0.3-0.2-0.6-0.1-0.8,0.2c-0.2,0.3-0.1,0.6,0.2,0.8L7,44.2l-2.2,1.2
				c-0.3,0.2-0.4,0.5-0.2,0.8c0.2,0.3,0.5,0.4,0.8,0.2l2.2-1.2v2.5c0,0.3,0.2,0.6,0.6,0.6c0.3,0,0.6-0.2,0.6-0.6v-2.5l2.2,1.2
				c0.3,0.2,0.6,0.1,0.8-0.2C11.7,45.9,11.6,45.6,11.4,45.4z"/>
		</g>
		<g>
			<path class="st1" d="M33.4,33.8c0,0.7-0.5,1.2-1.2,1.2c-0.7,0-1.2-0.5-1.2-1.2s0.5-1.2,1.2-1.2C32.8,32.5,33.4,33.1,33.4,33.8z"
				/>
			<path class="st0" d="M35.4,45.4l-2.2-1.2l2.2-1.2c0.3-0.2,0.4-0.5,0.2-0.8s-0.5-0.4-0.8-0.2l-2.2,1.2v-2.5c0-0.3-0.2-0.6-0.6-0.6
				c-0.3,0-0.6,0.2-0.6,0.6v2.5L29.2,42c-0.3-0.2-0.6-0.1-0.8,0.2c-0.2,0.3-0.1,0.6,0.2,0.8l2.2,1.2l-2.2,1.2
				c-0.3,0.2-0.4,0.5-0.2,0.8c0.2,0.3,0.5,0.4,0.8,0.2l2.2-1.2v2.5c0,0.3,0.2,0.6,0.6,0.6c0.3,0,0.6-0.2,0.6-0.6v-2.5l2.2,1.2
				c0.3,0.2,0.6,0.1,0.8-0.2C35.8,45.9,35.7,45.6,35.4,45.4z"/>
		</g>
		<g>
			<path class="st0" d="M44.2,37.2c-0.3,0-0.5-0.2-0.5-0.5v-6c0-0.3,0.2-0.5,0.5-0.5s0.5,0.2,0.5,0.5v6C44.7,37,44.5,37.2,44.2,37.2
				z"/>
			<path class="st1" d="M45.4,44.2c0,0.7-0.5,1.2-1.2,1.2S43,44.9,43,44.2s0.5-1.2,1.2-1.2C44.9,43,45.4,43.5,45.4,44.2z"/>
		</g>
		<g>
			<g>
				<path class="st0" d="M23.4,35l-2.2-1.2l2.2-1.2c0.3-0.2,0.4-0.5,0.2-0.8c-0.2-0.3-0.5-0.4-0.8-0.2l-2.2,1.2v-2.5
					c0-0.3-0.2-0.6-0.6-0.6c-0.3,0-0.6,0.2-0.6,0.6v2.5l-2-1.2c-0.3-0.2-0.6-0.1-0.8,0.2c-0.2,0.3-0.1,0.6,0.2,0.8l2.2,1.2L16.8,35
					c-0.3,0.2-0.4,0.5-0.2,0.8c0.2,0.3,0.5,0.4,0.8,0.2l2.2-1.2v2.5c0,0.3,0.2,0.6,0.6,0.6c0.3,0,0.6-0.2,0.6-0.6v-2.5L23,36
					c0.3,0.2,0.6,0.1,0.8-0.2C23.8,35.5,23.7,35.2,23.4,35z"/>
			</g>
			<path class="st1" d="M20.1,47.7c-0.3,0-0.5-0.2-0.5-0.5v-6c0-0.3,0.2-0.5,0.5-0.5s0.5,0.2,0.5,0.5v6
				C20.6,47.5,20.4,47.7,20.1,47.7z"/>
		</g>
	</g>
	<g>
		<g>
			<circle class="st2" cx="10.4" cy="12" r="5"/>
			<g>
				<path class="st2" d="M10.4,5.7c-0.4,0-0.6-0.3-0.6-0.6V2.3c0-0.4,0.3-0.6,0.6-0.6s0.6,0.3,0.6,0.6v2.8
					C11.1,5.4,10.8,5.7,10.4,5.7z"/>
			</g>
			<g>
				<path class="st2" d="M3.4,12.7H0.7c-0.4,0-0.6-0.3-0.6-0.6s0.3-0.6,0.6-0.6h2.8c0.4,0,0.6,0.3,0.6,0.6C4,12.4,3.8,12.7,3.4,12.7
					z"/>
			</g>
			<g>
				<path class="st2" d="M5.5,7.7C5.3,7.7,5.1,7.7,5,7.6L3.1,5.6C2.8,5.4,2.8,5,3.1,4.8c0.2-0.2,0.6-0.2,0.9,0l1.9,1.9
					c0.2,0.2,0.2,0.6,0,0.9C5.8,7.7,5.6,7.7,5.5,7.7z"/>
			</g>
			<g>
				<path class="st2" d="M3.5,19.7c-0.2,0-0.4-0.1-0.5-0.2c-0.2-0.2-0.2-0.6,0-0.9L5,16.7c0.2-0.2,0.6-0.2,0.9,0
					c0.2,0.2,0.2,0.6,0,0.9l-1.9,1.9C3.8,19.6,3.7,19.7,3.5,19.7z"/>
			</g>
			<g>
				<path class="st2" d="M15.5,7.7c-0.2,0-0.4-0.1-0.5-0.2c-0.2-0.2-0.2-0.6,0-0.9l1.9-1.9c0.2-0.2,0.6-0.2,0.9,0
					c0.2,0.2,0.2,0.6,0,0.9l-1.9,1.9C15.8,7.7,15.6,7.7,15.5,7.7z"/>
			</g>
		</g>
		<g>
			<path class="st0" d="M50,20.8c0,4-3.2,7.3-7.3,7.3c-0.1,0,2.3,0-36.9,0c-5.1-0.1-7.7-6.2-4.3-10c2.1-2.3,5.5-2.6,7.9-1
				c-0.5-1.8-0.1-3.7,0.6-5c2.2-3.9,7.6-4.6,10.7-1.4c0.7-5.1,5.1-9,10.4-9c6.4,0,11.3,5.7,10.4,12C46,12.9,50,16.4,50,20.8z"/>
		</g>
	</g>
</g>
</svg>
