<?xml version="1.0" encoding="utf-8"?>
<!-- Generator: Adobe Illustrator 26.4.1, SVG Export Plug-In . SVG Version: 6.00 Build 0)  -->
<svg version="1.1" id="레이어_1" xmlns="http://www.w3.org/2000/svg" xmlns:xlink="http://www.w3.org/1999/xlink" x="0px"
	 y="0px" viewBox="0 0 50 50" style="enable-background:new 0 0 50 50;" xml:space="preserve">
<style type="text/css">
	.st0{fill:#0066DB;}
	.st1{fill:#FFBF00;}
</style>
<g>
	<path class="st0" d="M49.1,20.4c-1.7-2.5-5.2-2.9-7.4-0.9c0.5-4.8-3.3-9-8.1-9c-1.9,0-3.6,0.6-4.9,1.7C28.5,6.7,24,2.4,18.5,2.4
		c-6.2,0-11,5.5-10.1,11.7c-4.4-0.8-8.3,2.6-8.3,7c0,3.9,3.2,7.1,7.1,7.1H45C49,28.2,51.4,23.6,49.1,20.4z"/>
	<g>
		<path class="st1" d="M27.7,24.2h-7.2L16.9,35H25l-2.5,12.6l10.6-16.2h-7.2L27.7,24.2z"/>
	</g>
</g>
</svg>
