<?xml version="1.0" encoding="utf-8"?>
<!-- Generator: Adobe Illustrator 26.4.1, SVG Export Plug-In . SVG Version: 6.00 Build 0)  -->
<svg version="1.1" id="레이어_1" xmlns="http://www.w3.org/2000/svg" xmlns:xlink="http://www.w3.org/1999/xlink" x="0px"
	 y="0px" viewBox="0 0 50 50" style="enable-background:new 0 0 50 50;" xml:space="preserve">
<style type="text/css">
	.st0{fill:#0066DB;}
	.st1{fill:#99CCFF;}
</style>
<g>
	<path class="st0" d="M16.3,45.1c-0.5,1-1.6,1.4-2.5,0.9s-1.4-1.6-0.9-2.5c0.5-1,4.9-5.9,4.9-5.9S16.8,44.1,16.3,45.1z"/>
	<path class="st1" d="M32.6,45.1C32.1,46,31,46.4,30,46s-1.4-1.6-0.9-2.5c0.5-1,4.9-5.9,4.9-5.9S33,44.1,32.6,45.1z"/>
	<g>
		<path class="st0" d="M26.1,37.9c-0.5,1-1.6,1.4-2.5,0.9s-1.4-1.6-0.9-2.5s4.9-5.9,4.9-5.9S26.6,36.9,26.1,37.9z"/>
		<path class="st0" d="M41.9,37.9c-0.5,1-1.6,1.4-2.5,0.9s-1.4-1.6-0.9-2.5c0.5-1,4.9-5.9,4.9-5.9S42.3,36.9,41.9,37.9z"/>
		<path class="st1" d="M10.4,37.9c-0.5,1-1.6,1.4-2.5,0.9s-1.4-1.6-0.9-2.5s4.9-5.9,4.9-5.9S10.8,36.9,10.4,37.9z"/>
	</g>
</g>
<g>
	<path class="st0" d="M49.1,20.9c-1.7-2.5-5.2-2.9-7.4-0.9c0.5-4.8-3.3-9-8.1-9c-1.9,0-3.6,0.6-4.9,1.7C28.5,7.2,24,2.9,18.5,2.9
		c-6.2,0-11,5.5-10.1,11.7c-4.4-0.8-8.3,2.6-8.3,7c0,3.9,3.2,7.1,7.1,7.1H45C49,28.6,51.4,24.1,49.1,20.9z"/>
</g>
</svg>
