<?xml version="1.0" encoding="utf-8"?>
<!-- Generator: Adobe Illustrator 26.4.1, SVG Export Plug-In . SVG Version: 6.00 Build 0)  -->
<svg version="1.1" id="레이어_1" xmlns="http://www.w3.org/2000/svg" xmlns:xlink="http://www.w3.org/1999/xlink" x="0px"
	 y="0px" viewBox="0 0 50 50" style="enable-background:new 0 0 50 50;" xml:space="preserve">
<style type="text/css">
	.st0{fill:#FFBF00;}
</style>
<g>
	<path class="st0" d="M42.1,17.9C40.2,16.1,37.7,15,35,15c-3.7,0-7,2.1-10,6.2c-3-4.2-6.3-6.2-10-6.2c-2.7,0-5.2,1.1-7.1,2.9
		S5,22.3,5,25s1.1,5.2,2.9,7.1C9.8,33.9,12.3,35,15,35c3.7,0,7-2.1,10-6.2c3,4.2,6.3,6.2,10,6.2c2.7,0,5.2-1.1,7.1-2.9
		c1.9-1.9,2.9-4.4,2.9-7.1S43.9,19.8,42.1,17.9z M22.5,25.3c-2.5,4-5,5.7-7.5,5.7c-1.6,0-3.1-0.6-4.2-1.8C9.6,28.1,9,26.6,9,25
		s0.6-3.1,1.8-4.2c1.1-1.1,2.7-1.8,4.2-1.8l0.3,0c2.4,0.1,4.8,1.9,7.2,5.7l0.2,0.3L22.5,25.3z M39.2,29.2C38.1,30.4,36.6,31,35,31
		l-0.3,0c-2.4-0.1-4.8-1.9-7.2-5.7L27.3,25l0.2-0.3c2.5-4,5-5.7,7.5-5.7c1.6,0,3.1,0.6,4.2,1.8S41,23.4,41,25S40.4,28.1,39.2,29.2z"
		/>
</g>
</svg>
