<?xml version="1.0" encoding="utf-8"?>
<!-- Generator: Adobe Illustrator 26.4.1, SVG Export Plug-In . SVG Version: 6.00 Build 0)  -->
<svg version="1.1" id="레이어_1" xmlns="http://www.w3.org/2000/svg" xmlns:xlink="http://www.w3.org/1999/xlink" x="0px"
	 y="0px" viewBox="0 0 50 50" style="enable-background:new 0 0 50 50;" xml:space="preserve">
<style type="text/css">
	.st0{fill:#0066DB;}
</style>
<path class="st0" d="M49.1,18.9c-1.7-2.5-5.2-2.9-7.4-0.9c0.5-4.8-3.3-9-8.1-9c-1.9,0-3.6,0.6-4.9,1.7C28.5,5.2,24,0.9,18.5,0.9
	c-6.2,0-11,5.5-10.1,11.7c-4.4-0.8-8.3,2.6-8.3,7c0,3.9,3.2,7.1,7.1,7.1H45C49,26.7,51.4,22.1,49.1,18.9z"/>
<g>
	<g>
		<path class="st0" d="M40.6,38l-2.3-1.3l2.3-1.3c0.3-0.2,0.4-0.5,0.2-0.8s-0.5-0.4-0.8-0.2l-2.3,1.4v-2.7c0-0.3-0.2-0.6-0.6-0.6
			c-0.3,0-0.6,0.2-0.6,0.6v2.6l-2.3-1.3c-0.3-0.2-0.6-0.1-0.8,0.2c-0.2,0.3-0.1,0.6,0.2,0.8l2.3,1.3L33.6,38
			c-0.3,0.2-0.4,0.5-0.2,0.8s0.5,0.4,0.8,0.2l2.3-1.3v2.6c0,0.3,0.2,0.6,0.6,0.6c0.3,0,0.6-0.2,0.6-0.6v-2.6L40,39
			c0.3,0.2,0.6,0.1,0.8-0.2C40.9,38.5,40.8,38.2,40.6,38z"/>
		<g>
			<path class="st0" d="M39.4,33.2c-0.1,0-0.1,0-0.2,0c-0.2-0.1-0.2-0.3-0.1-0.4l3.1-4c0.1-0.1,0.4-0.2,0.5-0.1
				c0.2,0.1,0.2,0.3,0.1,0.4l-3.1,4C39.7,33.1,39.5,33.2,39.4,33.2z"/>
		</g>
	</g>
	<g>
		<path class="st0" d="M27.5,44.1l-2.3-1.3l2.3-1.3c0.3-0.2,0.4-0.5,0.2-0.8s-0.5-0.4-0.8-0.2l-2.3,1.4v-2.7c0-0.3-0.2-0.6-0.6-0.6
			c-0.3,0-0.6,0.2-0.6,0.6v2.6l-2.3-1.3c-0.3-0.2-0.6-0.1-0.8,0.2c-0.2,0.3-0.1,0.6,0.2,0.8l2.3,1.3l-2.3,1.3
			c-0.3,0.2-0.4,0.5-0.2,0.8c0.2,0.3,0.5,0.4,0.8,0.2l2.3-1.3v2.6c0,0.3,0.2,0.6,0.6,0.6c0.3,0,0.6-0.2,0.6-0.6v-2.6l2.3,1.3
			c0.3,0.2,0.6,0.1,0.8-0.2C27.8,44.6,27.7,44.3,27.5,44.1z"/>
		<g>
			<path class="st0" d="M26.3,39.3c-0.1,0-0.1,0-0.2,0c-0.2-0.1-0.2-0.3-0.1-0.4l3.1-4c0.1-0.1,0.4-0.2,0.5-0.1
				c0.2,0.1,0.2,0.3,0.1,0.4l-3.1,4C26.6,39.3,26.4,39.3,26.3,39.3z"/>
		</g>
	</g>
	<g>
		<path class="st0" d="M14.4,38l-2.3-1.3l2.3-1.3c0.3-0.2,0.4-0.5,0.2-0.8s-0.5-0.4-0.8-0.2l-2.3,1.4v-2.7c0-0.3-0.2-0.6-0.6-0.6
			c-0.3,0-0.6,0.2-0.6,0.6v2.6L8,34.4c-0.3-0.2-0.6-0.1-0.8,0.2c-0.2,0.3-0.1,0.6,0.2,0.8l2.3,1.3L7.4,38c-0.3,0.2-0.4,0.5-0.2,0.8
			C7.4,39.1,7.7,39.2,8,39l2.3-1.3v2.6c0,0.3,0.2,0.6,0.6,0.6c0.3,0,0.6-0.2,0.6-0.6v-2.6l2.3,1.3c0.3,0.2,0.6,0.1,0.8-0.2
			C14.7,38.5,14.6,38.2,14.4,38z"/>
		<g>
			<path class="st0" d="M13.2,33.2c-0.1,0-0.1,0-0.2,0c-0.2-0.1-0.2-0.3-0.1-0.4l3.1-4c0.1-0.1,0.4-0.2,0.5-0.1
				c0.2,0.1,0.2,0.3,0.1,0.4l-3.1,4C13.5,33.1,13.3,33.2,13.2,33.2z"/>
		</g>
	</g>
</g>
</svg>
