<?xml version="1.0" encoding="utf-8"?>
<!-- Generator: Adobe Illustrator 26.4.1, SVG Export Plug-In . SVG Version: 6.00 Build 0)  -->
<svg version="1.1" id="레이어_1" xmlns="http://www.w3.org/2000/svg" xmlns:xlink="http://www.w3.org/1999/xlink" x="0px"
	 y="0px" viewBox="0 0 50 50" style="enable-background:new 0 0 50 50;" xml:space="preserve">
<style type="text/css">
	.st0{fill:#0066DB;}
	.st1{fill:#FFBF00;}
</style>
<g>
	<path class="st0" d="M49,21.5c-1.7-2.5-5.2-2.9-7.4-0.9c0.5-4.8-3.3-9-8.1-9c-1.9,0-3.6,0.6-4.9,1.7c-0.2-5.5-4.7-9.8-10.2-9.8
		c-6.2,0-11,5.5-10.1,11.7c-4.4-0.8-8.3,2.6-8.3,7c-0.1,3.9,3.1,7.1,7,7.1h37.9C48.9,29.3,51.3,24.8,49,21.5z"/>
	<g>
		<path class="st1" d="M30.7,35.1H1c-0.6,0-1-0.4-1-1s0.4-1,1-1h29.7c0.6,0,1,0.4,1,1S31.3,35.1,30.7,35.1z"/>
		<path class="st1" d="M49,35.1H34.5c-0.6,0-1-0.4-1-1s0.4-1,1-1H49c0.6,0,1,0.4,1,1S49.5,35.1,49,35.1z"/>
	</g>
	<g>
		<path class="st1" d="M30.7,46.5H1c-0.6,0-1-0.4-1-1s0.4-1,1-1h29.7c0.6,0,1,0.4,1,1S31.3,46.5,30.7,46.5z"/>
		<path class="st1" d="M49,46.5H34.5c-0.6,0-1-0.4-1-1s0.4-1,1-1H49c0.6,0,1,0.4,1,1S49.5,46.5,49,46.5z"/>
	</g>
	<g>
		<path class="st1" d="M19.2,40.9H49c0.6,0,1-0.4,1-1s-0.4-1-1-1H19.2c-0.6,0-1,0.4-1,1S18.7,40.9,19.2,40.9z"/>
		<path class="st1" d="M1,40.9h14.5c0.6,0,1-0.4,1-1s-0.4-1-1-1H1c-0.6,0-1,0.4-1,1S0.4,40.9,1,40.9z"/>
	</g>
</g>
</svg>
