<?xml version="1.0" encoding="utf-8"?>
<!-- Generator: Adobe Illustrator 26.4.1, SVG Export Plug-In . SVG Version: 6.00 Build 0)  -->
<svg version="1.1" id="레이어_1" xmlns="http://www.w3.org/2000/svg" xmlns:xlink="http://www.w3.org/1999/xlink" x="0px"
	 y="0px" viewBox="0 0 50 50" style="enable-background:new 0 0 50 50;" xml:space="preserve">
<style type="text/css">
	.st0{fill:#0066DB;}
	.st1{fill:#FFBF00;}
</style>
<g>
	<path class="st0" d="M49,24.3c-1.7-2.5-5.2-2.9-7.4-0.9c0.5-4.8-3.3-9-8.1-9c-1.9,0-3.6,0.6-4.9,1.7c-0.2-5.5-4.7-9.8-10.2-9.8
		c-6.2,0-11,5.5-10.1,11.7C3.9,17.2,0,20.6,0,25c-0.1,3.9,3.1,7.1,7,7.1h37.9C48.9,32.1,51.3,27.6,49,24.3z"/>
	<path class="st1" d="M30.7,37.9H1c-0.6,0-1-0.4-1-1s0.4-1,1-1h29.7c0.6,0,1,0.4,1,1S31.3,37.9,30.7,37.9z"/>
	<path class="st1" d="M49,37.9H34.5c-0.6,0-1-0.4-1-1s0.4-1,1-1H49c0.6,0,1,0.4,1,1S49.6,37.9,49,37.9z"/>
	<g>
		<path class="st1" d="M19.3,43.7l29.7,0c0.6,0,1-0.4,1-1s-0.4-1-1-1l-29.7,0c-0.6,0-1,0.4-1,1S18.7,43.7,19.3,43.7z"/>
		<path class="st1" d="M1,43.7h14.5c0.6,0,1-0.4,1-1s-0.4-1-1-1H1c-0.6,0-1,0.4-1,1S0.4,43.7,1,43.7z"/>
	</g>
</g>
</svg>
