<?xml version="1.0" encoding="utf-8"?>
<!-- Generator: Adobe Illustrator 26.4.1, SVG Export Plug-In . SVG Version: 6.00 Build 0)  -->
<svg version="1.1" id="레이어_1" xmlns="http://www.w3.org/2000/svg" xmlns:xlink="http://www.w3.org/1999/xlink" x="0px"
	 y="0px" viewBox="0 0 50 50" style="enable-background:new 0 0 50 50;" xml:space="preserve">
<style type="text/css">
	.st0{fill:#0066DB;}
	.st1{fill:#FFBF00;}
</style>
<g>
	<path class="st0" d="M114,21.5c-1.7-2.5-5.2-2.9-7.4-0.9c0.5-4.8-3.3-9-8.1-9c-1.9,0-3.6,0.6-4.9,1.7c-0.2-5.5-4.7-9.8-10.2-9.8
		c-6.2,0-11,5.5-10.1,11.7c-4.4-0.8-8.3,2.6-8.3,7c-0.1,3.9,3.1,7.1,7,7.1h37.9C113.9,29.3,116.3,24.8,114,21.5z"/>
	<g>
		<path class="st1" d="M95.7,35.1H66c-0.6,0-1-0.4-1-1s0.4-1,1-1h29.7c0.6,0,1,0.4,1,1S96.3,35.1,95.7,35.1z"/>
		<path class="st1" d="M114,35.1H99.5c-0.6,0-1-0.4-1-1s0.4-1,1-1H114c0.6,0,1,0.4,1,1S114.5,35.1,114,35.1z"/>
	</g>
	<g>
		<path class="st1" d="M95.7,46.5H66c-0.6,0-1-0.4-1-1s0.4-1,1-1h29.7c0.6,0,1,0.4,1,1S96.3,46.5,95.7,46.5z"/>
		<path class="st1" d="M114,46.5H99.5c-0.6,0-1-0.4-1-1s0.4-1,1-1H114c0.6,0,1,0.4,1,1S114.5,46.5,114,46.5z"/>
	</g>
	<g>
		<path class="st1" d="M84.2,40.9H114c0.6,0,1-0.4,1-1s-0.4-1-1-1H84.2c-0.6,0-1,0.4-1,1S83.7,40.9,84.2,40.9z"/>
		<path class="st1" d="M66,40.9h14.5c0.6,0,1-0.4,1-1s-0.4-1-1-1H66c-0.6,0-1,0.4-1,1S65.4,40.9,66,40.9z"/>
	</g>
</g>
<g>
	<g>
		<path class="st1" d="M16.6,32.2c-0.7,0-1.3-0.6-1.3-1.3c0-0.7,0.5-1.3,1.3-1.3h13.7c1.3,0,2.7,0.5,3.8,1.3c1,0.8,1.8,2,2.2,3.4
			c0.3,1.3,0.2,2.7-0.3,3.9c-1.1,2.6-3.7,4.1-6.4,3.8c-1.3-0.2-2.6-0.7-3.6-1.8c-0.7-0.7-1.2-1.6-1.6-2.4c-0.3-0.9-0.4-2-0.3-2.9
			c0.1-0.7,0.7-1.2,1.5-1.1c0.7,0.1,1.1,0.7,1.1,1.4c-0.1,0.6-0.1,1.2,0.1,1.8c0.1,0.5,0.5,1,0.9,1.4c0.6,0.6,1.3,0.9,2.2,1.1
			c1.6,0.2,3.2-0.7,3.8-2.2c0.3-0.7,0.3-1.6,0.1-2.4c-0.2-0.8-0.6-1.5-1.3-2c-0.5-0.5-1.3-0.8-2.1-0.8L16.6,32.2L16.6,32.2z
			 M6.3,27.1c-0.7,0-1.3-0.6-1.3-1.3c0-0.7,0.6-1.3,1.3-1.3h32.6c0.8,0,1.6-0.3,2.2-0.8c0.6-0.5,1.1-1.1,1.3-1.9
			c0.2-0.8,0.1-1.6-0.2-2.4c-0.6-1.5-2.2-2.4-3.8-2.2c-0.7,0.1-1.6,0.5-2.1,1.1c-0.5,0.4-0.7,0.9-0.9,1.4c-0.2,0.5-0.2,1.1-0.1,1.8
			c0.1,0.7-0.4,1.3-1.1,1.4c-0.7,0.1-1.3-0.3-1.4-1.1c-0.1-0.9-0.1-2,0.3-2.9c0.3-0.9,0.8-1.8,1.5-2.4c1-1,2.3-1.6,3.6-1.8
			c2.8-0.3,5.4,1.2,6.5,3.8c0.5,1.2,0.6,2.6,0.3,3.9c-0.3,1.4-1.1,2.6-2.2,3.4c-1,0.8-2.4,1.3-3.8,1.3H6.3z M11.4,21.9
			c-0.7,0-1.2-0.5-1.2-1.2c0-0.7,0.5-1.3,1.2-1.3h14.1c0.8-0.1,1.6-0.3,2.2-0.8s1.1-1.1,1.3-2c0.2-0.8,0.1-1.6-0.2-2.4
			c-0.3-0.7-0.8-1.3-1.6-1.8c-0.7-0.4-1.5-0.5-2.3-0.5c-0.7,0.1-1.6,0.5-2.1,1c-0.5,0.5-0.7,0.9-0.9,1.5c-0.2,0.5-0.2,1.1-0.1,1.7
			c0.1,0.7-0.4,1.3-1.1,1.5c-0.7,0.1-1.3-0.4-1.4-1.1c-0.1-0.9-0.1-2,0.3-2.9c0.3-0.9,0.8-1.8,1.5-2.4c1-1,2.3-1.6,3.6-1.8
			c1.3-0.2,2.7,0.1,3.9,0.8c1.2,0.7,2.1,1.8,2.6,3c0.5,1.2,0.6,2.6,0.3,3.9c-0.3,1.3-1.1,2.5-2.2,3.4c-1,0.8-2.4,1.3-3.8,1.3
			L11.4,21.9L11.4,21.9z"/>
	</g>
	<circle class="st1" cx="6.8" cy="9.9" r="1"/>
	<circle class="st1" cx="12.9" cy="12.8" r="1"/>
	<circle class="st1" cx="12" cy="40.7" r="1"/>
	<circle class="st1" cx="19.2" cy="36.8" r="1"/>
	<circle class="st1" cx="8.6" cy="32.4" r="1"/>
	<circle class="st1" cx="40.6" cy="40.7" r="1"/>
	<circle class="st1" cx="43.1" cy="32.9" r="1"/>
	<circle class="st1" cx="36.4" cy="10.5" r="1"/>
	<circle class="st1" cx="43.1" cy="8.9" r="1"/>
</g>
</svg>
