<svg width="17" height="17" viewBox="0 0 17 17" fill="none" xmlns="http://www.w3.org/2000/svg">
<g clip-path="url(#clip0_1_6)">
<path d="M8.5 17C6.81886 17 5.17547 16.5015 3.77765 15.5675C2.37983 14.6335 1.29037 13.306 0.647022 11.7528C0.00367721 10.1996 -0.164651 8.49057 0.163323 6.84173C0.491298 5.19289 1.30084 3.67834 2.48959 2.48959C3.67834 1.30084 5.19289 0.491298 6.84173 0.163323C8.49057 -0.164651 10.1996 0.00367721 11.7528 0.647022C13.306 1.29037 14.6335 2.37983 15.5675 3.77765C16.5015 5.17547 17 6.81886 17 8.5C16.9976 10.7536 16.1012 12.9142 14.5077 14.5077C12.9142 16.1012 10.7536 16.9976 8.5 17V17ZM8.5 1.41666C7.09905 1.41666 5.72956 1.8321 4.56471 2.61042C3.39986 3.38875 2.49197 4.49501 1.95585 5.78932C1.41973 7.08363 1.27946 8.50786 1.55277 9.88189C1.82608 11.2559 2.5007 12.518 3.49132 13.5087C4.48195 14.4993 5.74408 15.1739 7.11811 15.4472C8.49214 15.7205 9.91636 15.5803 11.2107 15.0441C12.505 14.508 13.6112 13.6001 14.3896 12.4353C15.1679 11.2704 15.5833 9.90095 15.5833 8.5C15.5813 6.62201 14.8343 4.82154 13.5064 3.4936C12.1785 2.16567 10.378 1.41873 8.5 1.41666V1.41666Z" fill="#444444"/>
<path d="M9.91655 13.4585H8.49988V8.50022H7.08322V7.08355H8.49988C8.87561 7.08355 9.23594 7.23281 9.50162 7.49848C9.76729 7.76416 9.91655 8.12449 9.91655 8.50022V13.4585Z" fill="#444444"/>
<path d="M8.5 5.66645C9.0868 5.66645 9.5625 5.19075 9.5625 4.60394C9.5625 4.01714 9.0868 3.54144 8.5 3.54144C7.9132 3.54144 7.4375 4.01714 7.4375 4.60394C7.4375 5.19075 7.9132 5.66645 8.5 5.66645Z" fill="#444444"/>
</g>
<defs>
<clipPath id="clip0_1_6">
<rect width="17" height="17" fill="white"/>
</clipPath>
</defs>
</svg>
