<svg width="23" height="21" viewBox="0 0 23 21" fill="none" xmlns="http://www.w3.org/2000/svg">
<path d="M11.5012 0C5.14814 0 0 4.03823 0 9.02242C0 12.265 2.18138 15.1098 5.45577 16.6988C5.21573 17.5892 4.58415 19.9275 4.4583 20.4271C4.30216 21.0469 4.6867 21.04 4.93839 20.8735C5.13649 20.7416 8.08927 18.7479 9.36407 17.8899C10.0562 17.9916 10.7694 18.0448 11.4988 18.0448C17.8495 18.0448 23 14.0066 23 9.02242C23 4.03823 17.8519 0 11.5012 0Z" fill="#371D1E"/>
<path d="M3.47715 7.36179H4.66106C4.66106 7.36179 4.66805 10.5882 4.66106 11.3399C4.66106 11.888 5.89158 11.895 5.89158 11.3468L5.89624 7.40343C5.89624 7.40343 6.29243 7.40574 7.07316 7.40574C7.80961 7.40574 7.80961 6.25625 7.07316 6.25625C6.24349 6.25625 3.47249 6.23313 3.47249 6.23313C2.77799 6.23313 2.78032 7.35948 3.47249 7.35948" fill="#FAE100"/>
<path d="M9.14267 7.56995L9.80221 9.61913H8.42953L9.14267 7.56995ZM8.40389 6.61012C8.11258 7.24615 7.06151 10.2529 6.71193 11.0508C6.46023 11.6267 7.54859 12.0962 7.80029 11.5203L8.038 10.6992H10.2031C10.2031 10.6992 10.1285 10.7339 10.4151 11.4856C10.6482 12.0962 11.7738 11.6729 11.5385 11.0624C11.2052 10.1904 10.0562 7.05419 9.84649 6.61012C9.75094 6.40427 9.40369 6.25857 9.06809 6.25857C8.79076 6.25857 8.51809 6.36033 8.40389 6.61012" fill="#FAE100"/>
<path d="M11.9556 6.79977C11.9556 7.82205 11.9626 11.1155 11.9626 11.1155C11.9626 11.1155 11.8671 11.7701 12.4334 11.7701C12.9997 11.7701 14.2535 11.7631 14.8105 11.7631C15.3675 11.7631 15.3629 10.5882 14.8082 10.5882C14.2535 10.5882 13.2374 10.5813 13.2374 10.5813C13.2374 10.5813 13.2421 7.53526 13.2397 6.79515C13.2397 6.43665 12.9181 6.25857 12.5988 6.25857C12.2796 6.25857 11.958 6.43897 11.958 6.79746" fill="#FAE100"/>
<path d="M15.5143 6.63556C15.526 7.08425 15.5004 11.134 15.5004 11.4347C15.5004 11.9089 16.7169 11.9065 16.7146 11.4347C16.7146 10.8843 16.7146 9.84117 16.7146 9.84117L17.0711 9.55669L18.6326 11.6706C18.9472 12.0846 19.94 11.3376 19.6254 10.9236L17.9684 8.75644C17.9684 8.75644 19.094 7.54913 19.5368 7.11201C19.7955 6.85759 18.9938 6.05504 18.7351 6.31176C18.4834 6.55924 16.7216 8.31006 16.7216 8.31006C16.7216 8.31006 16.7379 7.21146 16.7216 6.60318C16.7146 6.3719 16.4302 6.26088 16.1389 6.26088C15.8266 6.26088 15.5073 6.38809 15.5143 6.63556" fill="#FAE100"/>
</svg>
