<svg width="22" height="24" viewBox="0 0 22 24" fill="none" xmlns="http://www.w3.org/2000/svg">
<path d="M17.7708 7.74779C17.7708 5.95817 17.0641 4.24184 15.806 2.97638C14.548 1.71093 12.8417 1 11.0625 1C9.28334 1 7.57705 1.71093 6.31899 2.97638C5.06094 4.24184 4.35417 5.95817 4.35417 7.74779C4.35417 15.6202 1 17.8695 1 17.8695H21.125C21.125 17.8695 17.7708 15.6202 17.7708 7.74779Z" stroke="#333333" stroke-width="1.5" stroke-linecap="round" stroke-linejoin="round"/>
<path d="M13.25 21.421C13.0277 21.691 12.7086 21.9152 12.3247 22.071C11.9408 22.2268 11.5055 22.3089 11.0625 22.3089C10.6194 22.3089 10.1842 22.2268 9.80026 22.071C9.41635 21.9152 9.09727 21.691 8.87497 21.421" stroke="#333333" stroke-width="1.5" stroke-linecap="round" stroke-linejoin="round"/>
</svg>
