<svg width="33" height="33" viewBox="0 0 33 33" fill="none" xmlns="http://www.w3.org/2000/svg">
<rect width="33" height="33" fill="url(#paint0_linear_1_2)"/>
<path d="M20.5792 27.0187H20.6718L20.6739 27.0163C24.2013 26.9603 27.0187 23.7316 27.0187 19.8192V8.25V8.04375H26.8125H22.5075H22.3013V8.25V19.8192C22.3013 20.9193 21.5081 21.7746 20.5808 21.7746C19.6531 21.7746 18.8587 20.9206 18.8587 19.8192V8.25V8.04375H18.6525H14.3475H14.1413V8.25V19.8192C14.1413 20.9193 13.3481 21.7746 12.4208 21.7746C11.4931 21.7746 10.6987 20.9206 10.6987 19.8192V8.37028V8.16403H10.4925H6.1875H5.98125V8.37028V19.8192C5.98125 23.7659 8.8484 27.0187 12.4192 27.0187C13.9394 27.0187 15.3636 26.4364 16.4992 25.3878C17.635 26.4364 19.0606 27.0187 20.5792 27.0187Z" fill="white" stroke="white" stroke-width="0.4125"/>
<defs>
<linearGradient id="paint0_linear_1_2" x1="0" y1="33" x2="34.0312" y2="33" gradientUnits="userSpaceOnUse">
<stop stop-color="#69BAD6"/>
<stop offset="1" stop-color="#1383B4"/>
</linearGradient>
</defs>
</svg>
