<svg width="32" height="32" viewBox="0 0 32 32" fill="none" xmlns="http://www.w3.org/2000/svg">
<circle cx="16" cy="16" r="16" fill="#F3F3F3"/>
<path d="M22.0199 8.72729V18.9632C22.0199 20.1759 20.8739 21.1292 19.597 20.8159C18.7394 20.606 18.1552 19.8026 18.1552 18.9123V8.72729H13.9934V19.0262C13.9339 20.0814 13.0822 20.9388 12.0373 20.9388C10.9924 20.9388 10.1392 20.0799 10.1288 19.0262V8.87718H5.81824V19.0262C5.90147 22.4377 8.65426 25.2121 12.0373 25.2121C13.54 25.2121 14.9491 24.6725 16.0535 23.6998C17.1579 24.6725 18.567 25.2121 20.0697 25.2121C23.4527 25.2121 26.204 22.4362 26.1817 19.0262V8.72729H22.0199Z" fill="url(#paint0_linear_1511_87)"/>
<defs>
<linearGradient id="paint0_linear_1511_87" x1="9.00003" y1="7.5497" x2="20.1825" y2="26.0681" gradientUnits="userSpaceOnUse">
<stop stop-color="#6FBED7"/>
<stop offset="0.458333" stop-color="#1584BB"/>
<stop offset="0.885417" stop-color="#5A4CCA"/>
</linearGradient>
</defs>
</svg>
