<svg id="레이어_1" data-name="레이어 1" xmlns="http://www.w3.org/2000/svg" xmlns:xlink="http://www.w3.org/1999/xlink" viewBox="0 0 512.74 119.82"><defs><style>.cls-1{fill:none;}.cls-2{clip-path:url(#clip-path);}.cls-3{fill:url(#linear-gradient);}.cls-4{clip-path:url(#clip-path-2);}.cls-5{fill:url(#linear-gradient-2);}.cls-6{clip-path:url(#clip-path-3);}.cls-7{fill:url(#linear-gradient-3);}.cls-8{clip-path:url(#clip-path-4);}.cls-9{fill:url(#linear-gradient-4);}.cls-10{clip-path:url(#clip-path-5);}.cls-11{fill:url(#linear-gradient-5);}.cls-12{clip-path:url(#clip-path-6);}.cls-13{fill:url(#linear-gradient-6);}.cls-14{clip-path:url(#clip-path-7);}.cls-15{fill:url(#linear-gradient-7);}.cls-16{fill:#9a999a;}.cls-17{fill:url(#linear-gradient-8);}</style><clipPath id="clip-path"><path class="cls-1" d="M259.46,53.39h0a21,21,0,1,1,21,21,21,21,0,0,1-21-21m0-20.59V24h-8.41V53.37h0v58.83h8.41V74a29.42,29.42,0,1,0,0-41.16"/></clipPath><linearGradient id="linear-gradient" x1="6.91" y1="-1463.48" x2="7.9" y2="-1463.48" gradientTransform="matrix(59.75, 0, 0, -59.75, -161.96, -87369.85)" gradientUnits="userSpaceOnUse"><stop offset="0" stop-color="#c32086"/><stop offset="1" stop-color="#dc1576"/></linearGradient><clipPath id="clip-path-2"><path class="cls-1" d="M125,53.38a21,21,0,1,1,21,21,21,21,0,0,1-21-21M167,24V32.8A29.42,29.42,0,1,0,167,74V82.8h8.4V24Z"/></clipPath><linearGradient id="linear-gradient-2" x1="6.94" y1="-1463.49" x2="7.93" y2="-1463.49" gradientTransform="matrix(59.75, 0, 0, -59.75, -298.2, -87385.14)" gradientUnits="userSpaceOnUse"><stop offset="0" stop-color="#008cc2"/><stop offset="1" stop-color="#865ba2"/></linearGradient><clipPath id="clip-path-3"><path class="cls-1" d="M99.75,24V61.79a12.61,12.61,0,1,1-25.22,0V24h-8.4V61.79a12.61,12.61,0,0,1-25.22,0V24.41h-8.4V61.79A21,21,0,0,0,70.33,74.36a21,21,0,0,0,37.83-12.57V24Z"/></clipPath><linearGradient id="linear-gradient-3" x1="6.95" y1="-1457.2" x2="7.93" y2="-1457.2" gradientTransform="matrix(76.82, 0, 0, -76.82, -501.27, -111884.48)" gradientUnits="userSpaceOnUse"><stop offset="0" stop-color="#6fc7e2"/><stop offset="1" stop-color="#008cc8"/></linearGradient><clipPath id="clip-path-4"><path class="cls-1" d="M385.68,24V53.39a21,21,0,1,1-42,0V24h-8.41V55.48h.08A29.41,29.41,0,0,0,385.68,74V82.8h8.41V53.39h0V24Z"/></clipPath><linearGradient id="linear-gradient-4" x1="6.89" y1="-1463.48" x2="7.88" y2="-1463.48" gradientTransform="matrix(59.75, 0, 0, -59.75, -76.46, -87384.82)" gradientUnits="userSpaceOnUse"><stop offset="0" stop-color="#e14560"/><stop offset="1" stop-color="#ee8d39"/></linearGradient><clipPath id="clip-path-5"><path class="cls-1" d="M234.24,24V40.77a21,21,0,1,1-42,0V24h-8.4V40.77a29.41,29.41,0,0,0,50.43,20.58V82.8a21,21,0,0,1-42,0h-8.4a29.42,29.42,0,0,0,58.84,0V24Z"/></clipPath><linearGradient id="linear-gradient-5" x1="6.93" y1="-1463.48" x2="7.91" y2="-1463.48" gradientTransform="matrix(59.75, 0, 0, -59.75, -230.14, -87369.85)" gradientUnits="userSpaceOnUse"><stop offset="0" stop-color="#865ba2"/><stop offset="1" stop-color="#c32086"/></linearGradient><clipPath id="clip-path-6"><rect class="cls-1" x="318.3" y="7.6" width="8.4" height="75.21"/></clipPath><linearGradient id="linear-gradient-6" x1="6.64" y1="-1632.57" x2="7.63" y2="-1632.57" gradientTransform="matrix(8.54, 0, 0, -8.54, 261.6, -13889.09)" gradientUnits="userSpaceOnUse"><stop offset="0" stop-color="#dc1576"/><stop offset="1" stop-color="#e14460"/></linearGradient><clipPath id="clip-path-7"><path class="cls-1" d="M419.23,24h0a16.78,16.78,0,0,0,0,33.55v.07h25.22v-.07h.11a8.45,8.45,0,0,1,0,16.89H402.42v8.4h42v-.07h.11a16.78,16.78,0,0,0,0-33.55H419.27a8.44,8.44,0,0,1,0-16.88v.07h25.22V24Z"/></clipPath><linearGradient id="linear-gradient-7" x1="6.86" y1="-1463.46" x2="7.85" y2="-1463.46" gradientTransform="matrix(59.82, 0, 0, -59.82, -8.01, -87489.49)" gradientUnits="userSpaceOnUse"><stop offset="0" stop-color="#ee8d39"/><stop offset="1" stop-color="#fac83e"/></linearGradient><linearGradient id="linear-gradient-8" x1="452.81" y1="28.21" x2="479.24" y2="28.21" gradientUnits="userSpaceOnUse"><stop offset="0" stop-color="#f6b63c"/><stop offset="1" stop-color="#fac83e"/></linearGradient></defs><g class="cls-2"><rect class="cls-3" x="251.05" y="23.96" width="58.84" height="88.26"/></g><g class="cls-4"><rect class="cls-5" x="116.56" y="23.96" width="58.84" height="58.84"/></g><g class="cls-6"><rect class="cls-7" x="32.51" y="23.96" width="75.65" height="58.84"/></g><g class="cls-8"><rect class="cls-9" x="335.25" y="23.96" width="58.84" height="58.84"/></g><g class="cls-10"><rect class="cls-11" x="183.81" y="23.96" width="58.84" height="88.26"/></g><g class="cls-12"><rect class="cls-13" x="318.3" y="7.6" width="8.4" height="75.21"/></g><g class="cls-14"><rect class="cls-15" x="402.42" y="23.96" width="58.91" height="58.84"/></g><path class="cls-16" d="M292,94.26v1.26h-5.13v3.56h4.82v1.26h-4.82v4.57h-1.46V94.26Z"/><path class="cls-16" d="M298.37,105.08a5.14,5.14,0,0,1-1.75-.29,3.63,3.63,0,0,1-1.36-.88,4.05,4.05,0,0,1-.9-1.46,6.08,6.08,0,0,1-.31-2.06v-1.6a6,6,0,0,1,.31-2,4.1,4.1,0,0,1,.9-1.47,3.59,3.59,0,0,1,1.37-.88,4.89,4.89,0,0,1,1.74-.3,5,5,0,0,1,1.75.3,3.59,3.59,0,0,1,1.37.88,3.94,3.94,0,0,1,.89,1.47,5.75,5.75,0,0,1,.32,2v1.6a5.83,5.83,0,0,1-.32,2.06,3.9,3.9,0,0,1-.89,1.46,3.59,3.59,0,0,1-1.37.88A5.22,5.22,0,0,1,298.37,105.08Zm0-9.65a3.25,3.25,0,0,0-1.14.2,2.24,2.24,0,0,0-.9.62,3,3,0,0,0-.59,1.09,5.14,5.14,0,0,0-.22,1.61v1.28a5,5,0,0,0,.22,1.6,3,3,0,0,0,.59,1.1,2.24,2.24,0,0,0,.9.62,3.38,3.38,0,0,0,2.29,0,2.24,2.24,0,0,0,.9-.62,3,3,0,0,0,.59-1.1,5.33,5.33,0,0,0,.22-1.6V99a5.45,5.45,0,0,0-.22-1.61,3,3,0,0,0-.59-1.09,2.24,2.24,0,0,0-.9-.62A3.27,3.27,0,0,0,298.37,95.43Z"/><path class="cls-16" d="M306.88,104.91h-1.46V94.26h3.86a4.26,4.26,0,0,1,1.44.23,3.08,3.08,0,0,1,1.07.6,2.61,2.61,0,0,1,.65.92,2.76,2.76,0,0,1,.23,1.16v.39a2.73,2.73,0,0,1-1.78,2.63l2.11,4.72h-1.58l-1.92-4.44h-2.62Zm0-5.68h2a2.66,2.66,0,0,0,1.77-.47,1.57,1.57,0,0,0,.52-1.25v-.29a1.55,1.55,0,0,0-.52-1.24,2.36,2.36,0,0,0-1.62-.46h-2.19Z"/><path class="cls-16" d="M324,100.63v4.28h-1.46v-4.28l-3.66-6.37h1.62l2.79,5,2.72-5h1.63Z"/><path class="cls-16" d="M333.74,105.08a5.14,5.14,0,0,1-1.75-.29,3.67,3.67,0,0,1-1.37-.88,4,4,0,0,1-.89-1.46,6.06,6.06,0,0,1-.32-2.06v-1.6a6,6,0,0,1,.32-2,4.08,4.08,0,0,1,.89-1.47A3.63,3.63,0,0,1,332,94.4a5.2,5.2,0,0,1,3.48,0,3.71,3.71,0,0,1,1.38.88,4.08,4.08,0,0,1,.89,1.47,6,6,0,0,1,.32,2v1.6a6.06,6.06,0,0,1-.32,2.06,4,4,0,0,1-.89,1.46,3.71,3.71,0,0,1-1.38.88A5.12,5.12,0,0,1,333.74,105.08Zm0-9.65a3.31,3.31,0,0,0-1.15.2,2.24,2.24,0,0,0-.9.62,3.14,3.14,0,0,0-.59,1.09,5.47,5.47,0,0,0-.21,1.61v1.28a5.35,5.35,0,0,0,.21,1.6,3.1,3.1,0,0,0,.59,1.1,2.24,2.24,0,0,0,.9.62,3.31,3.31,0,0,0,1.15.2,3.25,3.25,0,0,0,1.14-.2,2.35,2.35,0,0,0,.91-.62,3.1,3.1,0,0,0,.59-1.1,5.35,5.35,0,0,0,.21-1.6V99a5.47,5.47,0,0,0-.21-1.61,3.14,3.14,0,0,0-.59-1.09,2.35,2.35,0,0,0-.91-.62A3.25,3.25,0,0,0,333.74,95.43Z"/><path class="cls-16" d="M348.58,94.26v6.39a6.82,6.82,0,0,1-.26,2,3.56,3.56,0,0,1-.77,1.37,2.9,2.9,0,0,1-1.24.77,6,6,0,0,1-3.37,0,2.9,2.9,0,0,1-1.24-.77,3.56,3.56,0,0,1-.77-1.37,6.82,6.82,0,0,1-.26-2V94.26h1.46v6.21a6.7,6.7,0,0,0,.15,1.53,2.53,2.53,0,0,0,.45,1,1.81,1.81,0,0,0,.79.57,3.68,3.68,0,0,0,2.21,0,1.81,1.81,0,0,0,.79-.57,2.53,2.53,0,0,0,.45-1,6.7,6.7,0,0,0,.15-1.53V94.26Z"/><path class="cls-16" d="M353,104.91h-1.46V94.26h3.85a4.28,4.28,0,0,1,1.45.23,3.08,3.08,0,0,1,1.07.6,2.61,2.61,0,0,1,.65.92,2.76,2.76,0,0,1,.23,1.16v.39a2.77,2.77,0,0,1-.46,1.59,2.74,2.74,0,0,1-1.33,1l2.12,4.72h-1.58l-1.92-4.44H353Zm0-5.68h2a2.66,2.66,0,0,0,1.77-.47,1.61,1.61,0,0,0,.52-1.25v-.29a1.55,1.55,0,0,0-.52-1.24,2.36,2.36,0,0,0-1.62-.46H353Z"/><path class="cls-16" d="M366,94.26h3.78c2.26,0,3.39.87,3.39,2.6v.31a2.61,2.61,0,0,1-.09.69,1.91,1.91,0,0,1-.29.61,1.82,1.82,0,0,1-.53.5,2.74,2.74,0,0,1-.81.33A2.88,2.88,0,0,1,373,100a2.24,2.24,0,0,1,.61,1.7v.37a2.62,2.62,0,0,1-.83,2.06,3.79,3.79,0,0,1-2.58.74H366Zm1.46,1.26v3.23h1.9a9.55,9.55,0,0,0,1,0,1.9,1.9,0,0,0,.73-.24,1.12,1.12,0,0,0,.45-.49,1.86,1.86,0,0,0,.15-.81v-.27a1.55,1.55,0,0,0-.14-.74,1,1,0,0,0-.44-.42,2.19,2.19,0,0,0-.76-.17c-.3,0-.66,0-1.08,0Zm0,8.12h2.23a8.6,8.6,0,0,0,1.09-.06,2.18,2.18,0,0,0,.77-.25,1,1,0,0,0,.45-.48,1.73,1.73,0,0,0,.15-.77v-.33a2.19,2.19,0,0,0-.14-.82,1.12,1.12,0,0,0-.45-.56,2.18,2.18,0,0,0-.86-.32,7.07,7.07,0,0,0-1.33-.1h-1.91Z"/><path class="cls-16" d="M382.6,94.26v1.26h-5.17v3.31h4.86v1.25h-4.86v3.58h5.28v1.25H376V94.26Z"/><path class="cls-16" d="M387.7,104.91V95.52h-3.25V94.26h8v1.26h-3.25v9.39Z"/><path class="cls-16" d="M396.76,104.91V95.52h-3.25V94.26h8v1.26h-3.25v9.39Z"/><path class="cls-16" d="M410.17,94.26v1.26H405v3.31h4.86v1.25H405v3.58h5.27v1.25h-6.73V94.26Z"/><path class="cls-16" d="M414.45,104.91H413V94.26h3.86a4.26,4.26,0,0,1,1.44.23,3.08,3.08,0,0,1,1.07.6A2.61,2.61,0,0,1,420,96a2.76,2.76,0,0,1,.23,1.16v.39a2.73,2.73,0,0,1-1.78,2.63l2.11,4.72H419l-1.92-4.44h-2.62Zm0-5.68h2a2.66,2.66,0,0,0,1.77-.47,1.57,1.57,0,0,0,.52-1.25v-.29a1.55,1.55,0,0,0-.52-1.24,2.36,2.36,0,0,0-1.62-.46h-2.19Z"/><path class="cls-16" d="M440.23,94.26l-2.94,10.65h-1.46l-2.36-8.69-2.41,8.69h-1.49l-2.91-10.65h1.53l2.19,8.71,2.38-8.71h1.41l2.38,8.71,2.22-8.71Z"/><path class="cls-16" d="M450.91,104.91h-1.54l-1.12-3.13h-4.08l-1.12,3.13h-1.49l4-10.65h1.42Zm-6.29-4.38h3.19l-.89-2.5c-.08-.22-.15-.4-.2-.57s-.12-.32-.17-.47-.1-.31-.15-.48-.12-.37-.19-.62c-.08.25-.14.45-.19.63s-.1.33-.15.48-.1.3-.15.46l-.2.57Z"/><path class="cls-16" d="M457.19,100.63v4.28h-1.46v-4.28l-3.67-6.37h1.63l2.79,5,2.72-5h1.62Z"/><polygon class="cls-17" points="479.24 23.8 470.43 23.8 470.43 14.99 461.62 14.99 461.62 23.8 452.81 23.8 452.81 32.61 461.62 32.61 461.62 41.42 470.43 41.42 470.43 32.61 479.24 32.61 479.24 23.8"/></svg>