<svg width="30" height="30" viewBox="0 0 30 30" fill="none" xmlns="http://www.w3.org/2000/svg">
<rect width="30" height="30" rx="15" fill="#F4F4F4"/>
<rect width="30" height="30" rx="5" fill="url(#paint0_linear_1542_1213)"/>
<path d="M15.2417 10.2463C14.6305 10.2463 14.0415 10.3243 13.4746 10.4757V9.06722C13.4746 9.03511 13.4746 9.00299 13.4658 8.97088C13.3551 7.42475 12.1903 6.27778 10.7731 6.27778C9.35588 6.27778 8.19111 7.42016 8.08039 8.97088C8.07596 9.00299 8.07153 14.2607 8.07153 14.2607V17.6787C8.07153 17.7016 8.07153 17.7246 8.07153 17.7521C8.10696 21.8216 11.3045 25.1111 15.2461 25.1111C19.1877 25.1111 22.4207 21.7849 22.4207 17.6787C22.4207 13.5725 19.2099 10.2463 15.2461 10.2463H15.2417ZM15.2417 23.9687C11.8891 23.9687 9.16987 21.1518 9.16987 17.6787V9.12228C9.16987 8.19552 9.88733 7.44769 10.7731 7.44769C11.6588 7.44769 12.3763 8.19552 12.3763 9.12228V17.6053C12.3763 19.2478 13.6562 20.6608 15.2461 20.6608C16.8361 20.6608 18.1204 19.3258 18.1204 17.6833C18.1204 16.0408 16.8316 14.7058 15.2461 14.7058C14.5818 14.7058 13.9662 14.9397 13.4791 15.3343V14.0589C14.0105 13.779 14.6084 13.623 15.2461 13.623C17.4118 13.623 19.1656 15.4398 19.1656 17.6833C19.1656 19.9268 17.4118 21.7436 15.2461 21.7436C13.0805 21.7436 11.3267 19.9268 11.3267 17.6833V9.06722C11.3267 8.78736 11.0787 8.52126 10.7775 8.52126C10.4764 8.52126 10.2283 8.78736 10.2283 9.06722V17.6787C10.2283 17.8118 10.2328 17.9402 10.2416 18.0687C10.4321 20.7618 12.6022 22.8814 15.2461 22.8814C17.8901 22.8814 20.2684 20.5507 20.2684 17.6787C20.2684 14.8067 18.0185 12.476 15.2461 12.476C14.6261 12.476 14.0282 12.5953 13.4791 12.8064V11.6594C14.0371 11.485 14.6305 11.3887 15.2461 11.3887C18.5987 11.3887 21.318 14.2057 21.318 17.6787C21.318 21.1518 18.5987 23.9687 15.2461 23.9687H15.2417ZM13.4746 17.6787C13.4746 16.6694 14.2674 15.8481 15.2417 15.8481C16.216 15.8481 17.0088 16.6694 17.0088 17.6787C17.0088 18.688 16.216 19.5093 15.2417 19.5093C14.2674 19.5093 13.4746 18.688 13.4746 17.6787Z" fill="white"/>
<defs>
<linearGradient id="paint0_linear_1542_1213" x1="15" y1="0" x2="15" y2="30" gradientUnits="userSpaceOnUse">
<stop stop-color="#84C340"/>
<stop offset="1" stop-color="#23A847"/>
</linearGradient>
</defs>
</svg>
