<svg width="30" height="30" viewBox="0 0 30 30" fill="none" xmlns="http://www.w3.org/2000/svg">
<rect width="30" height="30" rx="15" fill="#F4F4F4"/>
<rect width="30" height="30" rx="5" fill="#FAE100"/>
<g clip-path="url(#clip0_1542_1214)">
<path d="M15.0011 6.00004C9.20048 6.00004 4.5 9.46623 4.5 13.7444C4.5 16.5277 6.49169 18.9695 9.48136 20.3333C9.26218 21.0976 8.68553 23.1047 8.57062 23.5335C8.42806 24.0655 8.77916 24.0596 9.00897 23.9167C9.18984 23.8035 11.8859 22.0922 13.0498 21.3557C13.6818 21.4431 14.3329 21.4887 14.9989 21.4887C20.7974 21.4887 25.5 18.0225 25.5 13.7444C25.5 9.46623 20.7995 6.00004 15.0011 6.00004Z" fill="#371D1E"/>
<path d="M7.67484 12.319H8.7558C8.7558 12.319 8.76218 15.0884 8.7558 15.7336C8.7558 16.2041 9.87932 16.21 9.87932 15.7395L9.88357 12.3547C9.88357 12.3547 10.2453 12.3567 10.9582 12.3567C11.6306 12.3567 11.6306 11.3701 10.9582 11.3701C10.2006 11.3701 7.67058 11.3502 7.67058 11.3502C7.03648 11.3502 7.0386 12.317 7.67058 12.317" fill="#FAE100"/>
<path d="M12.8476 12.4977L13.4498 14.2566H12.1965L12.8476 12.4977ZM12.1731 11.6738C11.9071 12.2197 10.9474 14.8005 10.6282 15.4854C10.3984 15.9797 11.3921 16.3827 11.622 15.8884L11.839 15.1837H13.8158C13.8158 15.1837 13.7477 15.2134 14.0094 15.8586C14.2222 16.3827 15.25 16.0194 15.0351 15.4954C14.7308 14.7469 13.6817 12.055 13.4902 11.6738C13.403 11.4971 13.0859 11.372 12.7795 11.372C12.5263 11.372 12.2773 11.4594 12.1731 11.6738Z" fill="#FAE100"/>
<path d="M15.416 11.8366C15.416 12.7141 15.4224 15.541 15.4224 15.541C15.4224 15.541 15.3352 16.1028 15.8522 16.1028C16.3693 16.1028 17.5141 16.0969 18.0227 16.0969C18.5312 16.0969 18.527 15.0884 18.0205 15.0884C17.5141 15.0884 16.5863 15.0824 16.5863 15.0824C16.5863 15.0824 16.5906 12.4679 16.5885 11.8326C16.5885 11.5249 16.2948 11.372 16.0033 11.372C15.7118 11.372 15.4181 11.5269 15.4181 11.8346" fill="#FAE100"/>
<path d="M18.6654 11.6956C18.676 12.0808 18.6526 15.5569 18.6526 15.815C18.6526 16.2219 19.7633 16.22 19.7612 15.815C19.7612 15.3425 19.7612 14.4472 19.7612 14.4472L20.0868 14.203L21.5125 16.0175C21.7997 16.3728 22.7062 15.7316 22.4189 15.3762L20.906 13.5161C20.906 13.5161 21.9338 12.4798 22.3381 12.1046C22.5743 11.8862 21.8423 11.1973 21.6061 11.4177C21.3763 11.6301 19.7676 13.1329 19.7676 13.1329C19.7676 13.1329 19.7825 12.19 19.7676 11.6678C19.7612 11.4693 19.5016 11.374 19.2356 11.374C18.9505 11.374 18.659 11.4832 18.6654 11.6956Z" fill="#FAE100"/>
</g>
<defs>
<clipPath id="clip0_1542_1214">
<rect width="21" height="18" fill="white" transform="translate(4.5 6.00004)"/>
</clipPath>
</defs>
</svg>
