<svg width="29" height="30" viewBox="0 0 29 30" fill="none" xmlns="http://www.w3.org/2000/svg">
<rect width="29" height="30" rx="14.5" fill="#F4F4F4"/>
<rect width="29" height="30" rx="5" fill="#3CA147"/>
<g clip-path="url(#clip0_1542_1211)">
<path d="M8.64404 13.6063C8.41751 13.6063 8.22352 13.688 8.06332 13.8501C7.90188 14.0121 7.82178 14.2089 7.82178 14.439C7.82178 14.6692 7.90188 14.8659 8.06332 15.028C8.22477 15.1901 8.41876 15.2718 8.64404 15.2718C8.86932 15.2718 9.07082 15.1901 9.23477 15.028C9.39872 14.8659 9.48007 14.6692 9.48007 14.439C9.48007 14.2089 9.39872 14.0121 9.23477 13.8501C9.07082 13.688 8.87432 13.6063 8.64404 13.6063Z" fill="white"/>
<path d="M15.6689 13.6001C15.4424 13.6001 15.2484 13.6805 15.0882 13.8426C14.9268 14.0047 14.8467 14.2015 14.8467 14.4316C14.8467 14.6618 14.928 14.8585 15.0882 15.0206C15.2484 15.1827 15.4424 15.2631 15.6689 15.2631C15.8955 15.2631 16.0957 15.1814 16.2597 15.0206C16.4236 14.8585 16.505 14.6618 16.505 14.4316C16.505 14.2015 16.4236 14.0047 16.2597 13.8426C16.0957 13.6805 15.8992 13.6001 15.6689 13.6001Z" fill="white"/>
<path d="M20.3535 13.6063C20.127 13.6063 19.933 13.688 19.7716 13.8501C19.6114 14.0121 19.53 14.2089 19.53 14.439C19.53 14.6692 19.6114 14.8659 19.7716 15.028C19.933 15.1901 20.127 15.2718 20.3535 15.2718C20.5801 15.2718 20.7803 15.1901 20.9443 15.028C21.1082 14.8659 21.1896 14.6692 21.1896 14.439C21.1896 14.2089 21.107 14.0121 20.9443 13.8501C20.7803 13.688 20.5838 13.6063 20.3535 13.6063Z" fill="white"/>
<path d="M22.4361 7.5H6.56282C5.34632 7.5 4.3501 8.48493 4.3501 9.68763V18.5631C4.3501 19.7658 5.34632 20.7507 6.56282 20.7507H12.7955C12.7955 20.7507 13.9995 23.9988 14.4375 23.9988C14.8756 23.9988 16.1784 20.7507 16.1784 20.7507H22.4361C23.6539 20.7507 24.6488 19.7658 24.6488 18.5631V9.68763C24.6488 8.48493 23.6526 7.5 22.4361 7.5ZM10.2499 15.6937C9.93573 16.0439 9.45388 16.1911 8.92824 16.1911C8.4539 16.1911 8.10722 16.0501 7.85066 15.857H7.83564V16.107H6.64417V10.9683H7.83564V12.9319H7.85066C8.17356 12.6597 8.60158 12.5669 9.10596 12.5508C9.53774 12.536 9.98704 12.8033 10.2561 13.1114C10.524 13.4182 10.7204 13.8996 10.7204 14.4316C10.7204 15.0107 10.5653 15.3423 10.2499 15.6925V15.6937ZM12.808 16.1453H11.5928V12.9654C11.5928 12.2316 11.0058 12.1351 11.0058 12.1351V10.8631C11.0058 10.8631 12.7091 10.9658 12.808 13.0062V16.1466V16.1453ZM17.5764 15.1703C17.4738 15.4005 17.3261 15.6059 17.1296 15.7865C16.9368 15.9647 16.7153 16.102 16.4638 16.1973C16.2135 16.2926 15.9481 16.3408 15.669 16.3408C15.3899 16.3408 15.1346 16.2926 14.8868 16.1973C14.6378 16.102 14.4162 15.9647 14.221 15.7865C14.0195 15.5984 13.8681 15.3918 13.7642 15.1629C13.6616 14.9352 13.609 14.6939 13.609 14.439C13.609 14.1841 13.6603 13.9416 13.7642 13.7139C13.8681 13.4863 14.0195 13.2784 14.221 13.0903C14.4175 12.9121 14.639 12.7748 14.8868 12.6795C15.1346 12.5843 15.395 12.5372 15.669 12.5372C15.9431 12.5372 16.2122 12.5843 16.4638 12.6795C16.7141 12.7748 16.9356 12.9121 17.1296 13.0903C17.3261 13.271 17.4738 13.4764 17.5764 13.7065C17.6778 13.9367 17.7291 14.1804 17.7291 14.439C17.7291 14.6976 17.6778 14.9402 17.5764 15.1703ZM22.356 15.6801C22.356 16.5821 22.1833 17.1327 21.7753 17.5151C21.291 17.9692 20.6014 18.0014 20.0206 17.9197V16.9867C20.505 17.035 21.1721 16.7195 21.1708 16.0983V15.8595H21.1558C20.8842 16.2307 20.4875 16.3656 19.9593 16.3656C19.47 16.3656 19.0457 16.1874 18.7591 15.8546C18.4712 15.5217 18.3286 15.0763 18.3286 14.517C18.3286 13.8897 18.4888 13.3922 18.8092 13.0235C19.1283 12.6548 19.5851 12.4828 20.107 12.4828C20.5751 12.4828 20.8692 12.5942 21.157 12.854H21.1721V12.5719H22.356V15.6801Z" fill="white"/>
</g>
<defs>
<clipPath id="clip0_1542_1211">
<rect width="20.3" height="16.5" fill="white" transform="translate(4.3501 7.5)"/>
</clipPath>
</defs>
</svg>
